<svg width="261" height="174" viewBox="0 0 261 174" fill="none" xmlns="http://www.w3.org/2000/svg">
<path d="M233.466 12.775L232.864 12.7054C230.391 12.3924 227.879 12.7615 225.6 13.773C223.322 14.7844 221.363 16.3996 219.936 18.4439C219.57 18.9803 219.244 19.5433 218.962 20.1282C217.96 22.2694 217.503 24.625 217.631 26.9855C217.759 29.3459 218.468 31.6382 219.696 33.6584C221.161 36.0318 223.367 38.092 223.872 40.8203C224.526 44.3734 222.09 47.6446 219.8 50.4042C217.51 53.1638 215.085 56.4559 215.76 60.0055C216.181 62.2292 217.792 64.0841 219.658 65.3856C224.603 68.8273 231.42 68.8204 236.8 66.2556C242.18 63.6908 246.227 58.885 248.879 53.5606C252.596 46.0994 253.8 37.2046 251.152 29.2006C248.503 21.1966 241.714 14.4558 233.466 12.775Z" fill="#FAA50A"/>
<path d="M19.401 69.8121L19.9509 70.0696C22.1965 71.1504 24.6948 71.5969 27.1758 71.3607C29.6568 71.1246 32.026 70.2148 34.0275 68.7298C34.5465 68.3382 35.0351 67.9078 35.4891 67.4422C37.1202 65.7305 38.3031 63.6422 38.9327 61.3631C39.5623 59.084 39.619 56.6846 39.0978 54.3783C38.4645 51.6674 37.0272 49.0087 37.4205 46.263C37.9285 42.6855 41.2798 40.347 44.3317 38.4712C47.3837 36.5955 50.728 34.2465 51.2221 30.6691C51.5319 28.428 50.5923 26.1451 49.2385 24.3285C45.6437 19.4948 39.1813 17.3302 33.2619 18.0645C27.3424 18.7988 21.9832 22.0387 17.7724 26.246C11.8564 32.1342 7.89962 40.2008 7.87178 48.605C7.84394 57.0092 12.1174 65.5944 19.401 69.8121Z" fill="#FAA50A"/>
<path d="M232.718 98.5813C238.603 98.5813 243.374 93.8106 243.374 87.9255C243.374 82.0405 238.603 77.2698 232.718 77.2698C226.833 77.2698 222.062 82.0405 222.062 87.9255C222.062 93.8106 226.833 98.5813 232.718 98.5813Z" fill="#E63B35"/>
<path d="M244.759 120.756C244.759 120.805 193.116 120.846 129.428 120.846C65.7407 120.846 14.087 120.801 14.087 120.756C14.087 120.711 65.7163 120.666 129.428 120.666C193.14 120.666 244.759 120.704 244.759 120.756Z" fill="#263238"/>
<path d="M239.807 160.463C239.807 160.512 190.391 160.553 129.428 160.553C68.4655 160.553 19.0391 160.512 19.0391 160.463C19.0391 160.414 68.4551 160.372 129.428 160.372C190.401 160.372 239.807 160.428 239.807 160.463Z" fill="#263238"/>
<path d="M206.301 16.3525H62.1076C59.3073 16.3525 57.0372 18.6226 57.0372 21.4229V113.344C57.0372 116.144 59.3073 118.414 62.1076 118.414H206.301C209.102 118.414 211.372 116.144 211.372 113.344V21.4229C211.372 18.6226 209.102 16.3525 206.301 16.3525Z" fill="#E0E0E0"/>
<path d="M206.301 118.414L206.632 118.393C206.766 118.389 206.9 118.374 207.032 118.348C207.22 118.325 207.405 118.287 207.586 118.233C208.105 118.103 208.598 117.885 209.044 117.589C209.665 117.188 210.189 116.655 210.578 116.027C210.812 115.656 210.997 115.257 211.132 114.84C211.268 114.367 211.34 113.878 211.347 113.385C211.347 112.341 211.347 111.217 211.347 109.989C211.347 107.535 211.347 104.703 211.347 101.515C211.347 88.7608 211.347 70.3029 211.32 47.4984C211.32 41.7982 211.32 35.8323 211.32 29.6008V22.4772C211.369 21.6802 211.306 20.8803 211.135 20.1004C210.921 19.3215 210.52 18.6063 209.969 18.0159C209.417 17.4256 208.731 16.9778 207.968 16.7109C207.777 16.6431 207.582 16.5873 207.384 16.5438C207.185 16.5021 206.983 16.4742 206.782 16.4499C206.374 16.422 205.96 16.4255 205.543 16.429H203.023H160.219H62.125C61.0514 16.4306 60.0069 16.7775 59.1458 17.4187C58.2847 18.0598 57.6528 18.961 57.3435 19.989C57.1972 20.5003 57.1268 21.0303 57.1347 21.562V39.2091C57.1347 47.684 57.1347 56.0268 57.1347 64.2372C57.1347 80.6489 57.1347 96.476 57.1347 111.565V112.957C57.1215 113.424 57.1565 113.89 57.2391 114.349C57.4317 115.252 57.8686 116.086 58.5023 116.757C58.8166 117.09 59.1762 117.377 59.5707 117.61C59.7659 117.727 59.9681 117.831 60.1762 117.923C60.387 118.009 60.6032 118.081 60.8235 118.139C61.7004 118.396 62.6296 118.299 63.5483 118.316H95.1989H132.501L186.511 118.348L201.196 118.365L186.511 118.383L132.501 118.41H95.1989H74.4163H62.1563C61.6863 118.413 61.218 118.352 60.7643 118.229C60.5373 118.169 60.3141 118.094 60.0961 118.007C59.8814 117.909 59.6723 117.8 59.4697 117.68C59.0631 117.44 58.6928 117.144 58.3701 116.799C58.0428 116.457 57.7652 116.07 57.5453 115.651C57.3273 115.228 57.1647 114.779 57.0616 114.314C56.9772 113.846 56.941 113.37 56.9537 112.895V111.503C56.9537 96.4238 56.9537 80.5967 56.9537 64.1746V21.5759C56.9437 21.0264 57.0165 20.4786 57.1695 19.9508C57.49 18.8854 58.1449 17.9514 59.0374 17.2871C59.9298 16.6228 61.0124 16.2634 62.125 16.262H160.219H203.023H205.525C205.943 16.262 206.354 16.262 206.775 16.2863C206.984 16.3072 207.192 16.3385 207.398 16.3803C208.312 16.5857 209.153 17.0348 209.833 17.68C210.512 18.3252 211.004 19.1424 211.257 20.0447L211.333 20.3405C211.354 20.4414 211.365 20.5424 211.382 20.6433C211.415 20.8448 211.433 21.0483 211.438 21.2523C211.438 21.6594 211.438 22.0596 211.438 22.4598V24.8506C211.438 26.4375 211.438 28.0093 211.438 29.566C211.438 35.7906 211.438 41.7564 211.438 47.4636C211.438 70.2681 211.414 88.726 211.407 101.48C211.407 104.668 211.407 107.501 211.407 109.954C211.407 111.182 211.407 112.317 211.407 113.35C211.399 113.848 211.324 114.342 211.184 114.819C211.05 115.244 210.862 115.65 210.624 116.027C210.23 116.659 209.7 117.196 209.071 117.596C208.623 117.89 208.127 118.105 207.606 118.233C207.424 118.285 207.238 118.323 207.05 118.344C206.916 118.368 206.781 118.381 206.646 118.383L206.301 118.414Z" fill="#263238"/>
<path d="M212.022 120.756H57.1973C55.555 120.755 53.9803 120.102 52.8194 118.94C51.6585 117.779 51.0063 116.204 51.0063 114.561V111.826H218.217V114.561C218.217 116.204 217.564 117.78 216.403 118.942C215.241 120.103 213.665 120.756 212.022 120.756Z" fill="#E0E0E0"/>
<path d="M212.022 120.756H212.224C212.423 120.749 212.622 120.731 212.819 120.704L213.261 120.634L213.787 120.498C213.978 120.443 214.173 120.359 214.389 120.283C214.605 120.206 214.824 120.084 215.05 119.956C215.56 119.664 216.029 119.305 216.442 118.887C217.528 117.765 218.15 116.273 218.182 114.711C218.182 113.817 218.182 112.856 218.182 111.837L218.217 111.868L57.2077 111.927H51.0064L51.0969 111.837V114.012C51.0608 114.728 51.1312 115.446 51.3057 116.142C51.6732 117.526 52.5173 118.736 53.6895 119.559C54.8594 120.369 56.2676 120.762 57.688 120.676H110.121L163.268 120.697L198.966 120.725L208.65 120.742H198.966L163.268 120.77L110.121 120.791H57.688C56.2407 120.896 54.7995 120.517 53.592 119.712C52.3915 118.861 51.5291 117.614 51.156 116.19C50.9785 115.48 50.9058 114.747 50.9403 114.015V111.75H57.2321L218.241 111.805H218.273V111.84C218.273 112.86 218.273 113.817 218.273 114.718C218.22 116.291 217.57 117.786 216.456 118.898C216.042 119.316 215.574 119.676 215.064 119.97C214.834 120.098 214.608 120.196 214.399 120.293C214.191 120.391 213.982 120.453 213.79 120.505L213.261 120.638L212.819 120.704C212.621 120.731 212.421 120.745 212.221 120.746L212.022 120.756Z" fill="#263238"/>
<path d="M118.992 111.823L121.066 115.122H150.263L152.187 111.823H118.992Z" fill="#263238"/>
<path d="M201.147 23.3264H67.1292C65.4994 23.3264 64.1782 24.6476 64.1782 26.2775V103.37C64.1782 105 65.4994 106.321 67.1292 106.321H201.147C202.777 106.321 204.099 105 204.099 103.37V26.2775C204.099 24.6476 202.777 23.3264 201.147 23.3264Z" fill="#E53935"/>
<path d="M201.085 106.321C201.464 106.313 201.839 106.238 202.192 106.098C202.626 105.925 203.013 105.652 203.323 105.301C203.751 104.816 204.012 104.206 204.067 103.561C204.088 100.631 204.067 96.2984 204.067 90.7235C204.067 79.5875 204.067 63.4403 204.036 43.5068C204.036 38.5235 204.036 33.3035 204.036 27.8468V26.8376C204.051 26.4993 204.035 26.1603 203.987 25.825C203.869 25.1548 203.521 24.5468 203.002 24.1058C202.479 23.6648 201.818 23.4188 201.134 23.4098H190.377H152.953H67.2023C66.7405 23.4101 66.2851 23.5192 65.8734 23.7284C65.4616 23.9377 65.105 24.241 64.8324 24.6139C64.5587 24.9852 64.3795 25.4176 64.3104 25.8737C64.2688 26.3364 64.2549 26.8013 64.2687 27.2657V66.005C64.2687 73.1785 64.2687 80.2185 64.2687 87.1252V97.3633C64.2687 99.0476 64.2687 100.728 64.2687 102.395C64.2687 102.81 64.2687 103.238 64.2896 103.634C64.357 104.239 64.611 104.807 65.0164 105.261C65.4218 105.714 65.9584 106.03 66.5516 106.164C66.9512 106.234 67.3575 106.259 67.7626 106.237H103.955H136.562L183.779 106.265L196.617 106.283L183.779 106.3L136.562 106.328H103.955H67.7626C67.3456 106.35 66.9275 106.323 66.5168 106.248C65.8899 106.105 65.3227 105.772 64.8938 105.293C64.4648 104.814 64.1953 104.214 64.1225 103.575C64.0842 103.144 64.1225 102.736 64.1016 102.319V97.3633C64.1016 93.9877 64.1016 90.575 64.1016 87.1252V66.005C64.1016 58.8339 64.1016 51.541 64.1016 44.1263V27.2831C64.0862 26.8059 64.1002 26.3283 64.1434 25.8528C64.2174 25.3676 64.4085 24.9077 64.7002 24.513C64.9891 24.1167 65.3676 23.7944 65.8049 23.5724C66.2422 23.3504 66.7258 23.2351 67.2162 23.2358H152.967H190.391H201.144C201.861 23.2458 202.552 23.5053 203.098 23.9696C203.644 24.4338 204.011 25.0739 204.137 25.7797C204.184 26.1255 204.201 26.475 204.186 26.8237V27.8468C204.186 33.2849 204.186 38.5049 204.186 43.5068C204.186 63.4403 204.165 79.5736 204.158 90.7235C204.158 96.2915 204.158 100.628 204.126 103.565C204.078 104.125 203.874 104.66 203.537 105.111C203.201 105.561 202.746 105.909 202.223 106.116C201.957 106.219 201.678 106.285 201.395 106.31L201.085 106.321Z" fill="#263238"/>
<path d="M116.058 43.8688V44.6657H112.752V40.3679H115.995V41.1648H113.74V42.1079H115.731V42.8805H113.74V43.8723L116.058 43.8688Z" fill="white"/>
<path d="M120.151 42.7797V44.6658H119.194V42.9258C119.194 42.3934 118.95 42.1463 118.525 42.1463C118.101 42.1463 117.735 42.4282 117.735 43.0337V44.6658H116.782V41.3703H117.694V41.76C117.835 41.6154 118.004 41.5019 118.192 41.427C118.38 41.352 118.581 41.3173 118.783 41.325C119.562 41.3181 120.151 41.76 120.151 42.7797Z" fill="white"/>
<path d="M123.14 44.5057C122.908 44.6526 122.638 44.7255 122.364 44.7145C121.584 44.7145 121.132 44.3178 121.132 43.5313V42.1776H120.624V41.4433H121.132V40.6394H122.085V41.4433H122.907V42.1776H122.085V43.5208C122.078 43.5779 122.083 43.636 122.101 43.6907C122.119 43.7454 122.149 43.7955 122.189 43.8372C122.228 43.8789 122.277 43.9112 122.331 43.9317C122.384 43.9522 122.442 43.9605 122.5 43.9558C122.637 43.9566 122.772 43.9126 122.882 43.8306L123.14 44.5057Z" fill="white"/>
<path d="M126.787 43.2876H124.295C124.346 43.4931 124.47 43.6732 124.643 43.7947C124.816 43.9162 125.028 43.971 125.238 43.9488C125.39 43.9548 125.542 43.9295 125.684 43.8744C125.826 43.8194 125.955 43.7357 126.063 43.6286L126.575 44.182C126.4 44.3641 126.188 44.506 125.953 44.5979C125.718 44.6899 125.466 44.7296 125.214 44.7144C124.072 44.7144 123.331 43.9975 123.331 43.0162C123.329 42.7874 123.373 42.5605 123.461 42.3493C123.549 42.1382 123.679 41.9473 123.844 41.7883C124.008 41.6293 124.204 41.5056 124.418 41.4247C124.632 41.3438 124.86 41.3075 125.089 41.3179C125.317 41.3059 125.545 41.342 125.758 41.4237C125.972 41.5055 126.165 41.6311 126.327 41.7925C126.489 41.9539 126.615 42.1475 126.697 42.3607C126.779 42.5738 126.816 42.8019 126.804 43.0301C126.804 43.1032 126.794 43.2076 126.787 43.2876ZM124.281 42.7273H125.906C125.883 42.5308 125.787 42.3503 125.637 42.2214C125.486 42.0925 125.293 42.0247 125.096 42.0313C124.897 42.0213 124.701 42.0878 124.55 42.2173C124.398 42.3467 124.302 42.5292 124.281 42.7273Z" fill="white"/>
<path d="M129.491 41.3181V42.202C129.411 42.202 129.348 42.202 129.275 42.202C129.153 42.1909 129.031 42.2074 128.917 42.2503C128.802 42.2931 128.699 42.3613 128.615 42.4496C128.53 42.5379 128.467 42.6442 128.43 42.7604C128.392 42.8766 128.381 42.9998 128.398 43.1207V44.6763H127.445V41.3807H128.356V41.8157C128.491 41.6469 128.664 41.5134 128.862 41.4267C129.06 41.34 129.276 41.3027 129.491 41.3181Z" fill="white"/>
<path d="M133.945 43.1519V44.6727H132.953V43.1519L131.293 40.3679H132.337L133.486 42.275L134.631 40.3679H135.605L133.945 43.1519Z" fill="white"/>
<path d="M135.348 43.0162C135.324 42.6528 135.41 42.2907 135.595 41.9768C135.779 41.6629 136.054 41.4118 136.383 41.256C136.712 41.1002 137.081 41.0469 137.44 41.103C137.8 41.1592 138.135 41.3222 138.401 41.5709C138.667 41.8196 138.852 42.1425 138.932 42.4977C139.013 42.8529 138.984 43.224 138.851 43.5629C138.718 43.9018 138.485 44.1928 138.185 44.3981C137.884 44.6034 137.528 44.7136 137.164 44.7144C136.931 44.7307 136.698 44.6988 136.478 44.6208C136.258 44.5427 136.057 44.4202 135.886 44.2609C135.716 44.1015 135.58 43.9088 135.487 43.6946C135.395 43.4805 135.347 43.2495 135.348 43.0162ZM138.003 43.0162C137.989 42.8523 137.928 42.6959 137.827 42.5661C137.726 42.4364 137.59 42.3389 137.434 42.2857C137.278 42.2324 137.111 42.2257 136.951 42.2664C136.792 42.307 136.648 42.3932 136.537 42.5145C136.426 42.6357 136.352 42.7867 136.326 42.949C136.299 43.1113 136.32 43.2779 136.387 43.4282C136.454 43.5786 136.563 43.7063 136.701 43.7957C136.839 43.885 137 43.9322 137.164 43.9314C137.281 43.933 137.398 43.9098 137.505 43.8633C137.613 43.8168 137.709 43.7481 137.789 43.6617C137.868 43.5753 137.928 43.4731 137.965 43.3618C138.002 43.2506 138.015 43.1328 138.003 43.0162Z" fill="white"/>
<path d="M142.931 41.3701V44.6657H142.022V44.2724C141.894 44.4156 141.736 44.5292 141.559 44.6055C141.383 44.6818 141.192 44.7189 140.999 44.7144C140.171 44.7144 139.59 44.2481 139.59 43.2319V41.3701H140.547V43.0892C140.547 43.6426 140.79 43.8862 141.215 43.8862C141.64 43.8862 141.974 43.6043 141.974 42.9988V41.3701H142.931Z" fill="white"/>
<path d="M145.864 41.3181V42.202C145.784 42.202 145.725 42.202 145.652 42.202C145.53 42.1902 145.407 42.2062 145.293 42.2489C145.178 42.2915 145.075 42.3596 144.99 42.4481C144.906 42.5366 144.842 42.6431 144.805 42.7597C144.768 42.8762 144.758 42.9996 144.775 43.1207V44.6763H143.818V41.3807H144.73V41.8157C144.864 41.6469 145.038 41.5134 145.235 41.4267C145.433 41.34 145.649 41.3027 145.864 41.3181Z" fill="white"/>
<path d="M147.99 42.522C147.99 41.2448 148.982 40.3018 150.339 40.3018C151.697 40.3018 152.685 41.2414 152.685 42.522C152.685 43.8026 151.686 44.7388 150.339 44.7388C148.993 44.7388 147.99 43.7957 147.99 42.522ZM151.679 42.522C151.674 42.2574 151.59 42.0004 151.439 41.7831C151.288 41.5658 151.076 41.398 150.83 41.3007C150.584 41.2034 150.315 41.1809 150.056 41.2361C149.797 41.2913 149.56 41.4218 149.376 41.611C149.191 41.8003 149.066 42.04 149.016 42.3C148.967 42.56 148.996 42.8288 149.099 43.0725C149.202 43.3163 149.375 43.5242 149.595 43.6702C149.816 43.8162 150.075 43.8937 150.339 43.8931C150.519 43.8976 150.698 43.865 150.865 43.7973C151.032 43.7296 151.182 43.6282 151.308 43.4995C151.434 43.3709 151.532 43.2176 151.596 43.0494C151.659 42.8813 151.688 42.7017 151.679 42.522Z" fill="white"/>
<path d="M154.261 41.1857H152.887V40.3679H156.624V41.1788H155.253V44.6588H154.261V41.1857Z" fill="white"/>
<path d="M160.88 41.9339C160.88 42.8874 160.164 43.4825 159.015 43.4825H158.152V44.6657H157.16V40.3679H159.015C160.164 40.3679 160.88 40.97 160.88 41.9339ZM159.875 41.9339C159.875 41.4606 159.568 41.1857 158.959 41.1857H158.152V42.6752H158.959C159.568 42.6752 159.875 42.3968 159.875 41.9339Z" fill="white"/>
<g opacity="0.2">
<path d="M105.709 53.5154H98.6267C97.5754 53.5154 96.7231 54.3676 96.7231 55.4189V66.4471C96.7231 67.4984 97.5754 68.3506 98.6267 68.3506H105.709C106.76 68.3506 107.612 67.4984 107.612 66.4471V55.4189C107.612 54.3676 106.76 53.5154 105.709 53.5154Z" fill="white"/>
</g>
<g opacity="0.2">
<path d="M119.409 53.5154H112.327C111.276 53.5154 110.424 54.3676 110.424 55.4189V66.4471C110.424 67.4984 111.276 68.3506 112.327 68.3506H119.409C120.461 68.3506 121.313 67.4984 121.313 66.4471V55.4189C121.313 54.3676 120.461 53.5154 119.409 53.5154Z" fill="white"/>
</g>
<g opacity="0.2">
<path d="M133.113 53.5154H126.032C124.98 53.5154 124.128 54.3676 124.128 55.4189V66.4471C124.128 67.4984 124.98 68.3506 126.032 68.3506H133.113C134.165 68.3506 135.017 67.4984 135.017 66.4471V55.4189C135.017 54.3676 134.165 53.5154 133.113 53.5154Z" fill="white"/>
</g>
<g opacity="0.2">
<path d="M146.814 53.5154H139.732C138.681 53.5154 137.829 54.3676 137.829 55.4189V66.4471C137.829 67.4984 138.681 68.3506 139.732 68.3506H146.814C147.866 68.3506 148.718 67.4984 148.718 66.4471V55.4189C148.718 54.3676 147.866 53.5154 146.814 53.5154Z" fill="white"/>
</g>
<g opacity="0.2">
<path d="M160.515 53.5154H153.433C152.382 53.5154 151.53 54.3676 151.53 55.4189V66.4471C151.53 67.4984 152.382 68.3506 153.433 68.3506H160.515C161.566 68.3506 162.419 67.4984 162.419 66.4471V55.4189C162.419 54.3676 161.566 53.5154 160.515 53.5154Z" fill="white"/>
</g>
<g opacity="0.2">
<path d="M174.216 53.5154H167.134C166.083 53.5154 165.23 54.3676 165.23 55.4189V66.4471C165.23 67.4984 166.083 68.3506 167.134 68.3506H174.216C175.267 68.3506 176.119 67.4984 176.119 66.4471V55.4189C176.119 54.3676 175.267 53.5154 174.216 53.5154Z" fill="white"/>
</g>
<path d="M103.304 60.9938L104.609 61.6898L104.024 62.6712L102.709 61.8917L102.73 63.3394H101.616V61.8812L100.301 62.6712L99.7264 61.6898L101.028 60.9938L99.7264 60.277L100.301 59.2956L101.616 60.0856V58.6274H102.74L102.719 60.0856L104.035 59.2956L104.619 60.277L103.304 60.9938Z" fill="#263238"/>
<path d="M149.024 77.4578H123.822C121.318 77.4578 119.287 79.4879 119.287 81.9922V82.9144C119.287 85.4187 121.318 87.4488 123.822 87.4488H149.024C151.528 87.4488 153.559 85.4187 153.559 82.9144V81.9922C153.559 79.4879 151.528 77.4578 149.024 77.4578Z" fill="#E63B35"/>
<path d="M126.846 82.2185C126.865 81.9153 126.972 81.6243 127.154 81.3815C127.337 81.1387 127.587 80.9548 127.873 80.8526C128.159 80.7503 128.468 80.7342 128.763 80.8063C129.058 80.8784 129.326 81.0354 129.533 81.258L129.115 81.6443C129.03 81.5422 128.924 81.4599 128.803 81.4034C128.683 81.3469 128.552 81.3175 128.419 81.3172C128.18 81.3172 127.951 81.4121 127.782 81.5812C127.613 81.7502 127.518 81.9794 127.518 82.2185C127.518 82.4575 127.613 82.6868 127.782 82.8558C127.951 83.0248 128.18 83.1198 128.419 83.1198C128.554 83.1172 128.686 83.0847 128.806 83.0244C128.927 82.9642 129.032 82.8779 129.115 82.7718L129.533 83.1581C129.327 83.382 129.06 83.5404 128.765 83.6137C128.47 83.687 128.16 83.6719 127.874 83.5702C127.587 83.4686 127.337 83.2849 127.154 83.042C126.972 82.7992 126.864 82.5079 126.846 82.2046V82.2185Z" fill="white"/>
<path d="M129.689 82.5422C129.674 82.3034 129.731 82.0656 129.852 81.8595C129.974 81.6534 130.154 81.4885 130.37 81.3864C130.587 81.2842 130.829 81.2493 131.065 81.2864C131.302 81.3234 131.521 81.4306 131.696 81.5941C131.871 81.7576 131.992 81.9698 132.045 82.2031C132.097 82.4365 132.079 82.6803 131.991 82.9029C131.903 83.1255 131.751 83.3167 131.553 83.4515C131.356 83.5864 131.122 83.6588 130.883 83.6592C130.73 83.6698 130.576 83.6487 130.432 83.5972C130.287 83.5458 130.155 83.4652 130.043 83.3604C129.931 83.2556 129.842 83.1289 129.781 82.9881C129.72 82.8473 129.689 82.6955 129.689 82.5422ZM131.429 82.5422C131.42 82.4341 131.38 82.331 131.314 82.2454C131.247 82.1599 131.157 82.0956 131.054 82.0606C130.952 82.0255 130.841 82.0211 130.736 82.048C130.631 82.0749 130.536 82.1319 130.463 82.2119C130.39 82.292 130.342 82.3916 130.325 82.4987C130.307 82.6057 130.322 82.7155 130.366 82.8144C130.41 82.9134 130.482 82.9974 130.573 83.056C130.665 83.1145 130.771 83.1452 130.879 83.1442C130.957 83.1456 131.033 83.1306 131.104 83.1001C131.175 83.0697 131.239 83.0246 131.291 82.9677C131.344 82.9108 131.383 82.8434 131.408 82.7701C131.432 82.6967 131.441 82.619 131.433 82.5422H131.429Z" fill="white"/>
<path d="M134.7 82.3855V83.6244H134.074V82.476C134.074 82.128 133.91 81.9645 133.635 81.9645C133.361 81.9645 133.113 82.1489 133.113 82.5491V83.6175H132.487V81.4529H133.086V81.7069C133.179 81.6122 133.291 81.5379 133.414 81.4888C133.537 81.4397 133.67 81.4168 133.803 81.4216C133.928 81.4131 134.055 81.4329 134.172 81.4793C134.289 81.5257 134.395 81.5977 134.481 81.6901C134.567 81.7824 134.631 81.8927 134.669 82.013C134.707 82.1333 134.718 82.2606 134.7 82.3855Z" fill="white"/>
<path d="M136.663 83.5198C136.511 83.6175 136.332 83.6661 136.152 83.659C136.044 83.6738 135.935 83.6641 135.833 83.6306C135.73 83.5971 135.636 83.5407 135.558 83.4656C135.481 83.3905 135.421 83.2987 135.384 83.1972C135.347 83.0957 135.333 82.987 135.344 82.8795V81.9921H134.996V81.5084H135.344V80.9829H135.971V81.5084H136.51V81.9921H135.971V82.8725C135.966 82.91 135.969 82.948 135.981 82.9838C135.993 83.0196 136.013 83.0524 136.039 83.0797C136.065 83.107 136.096 83.1282 136.131 83.1417C136.167 83.1553 136.204 83.1608 136.242 83.1579C136.333 83.1587 136.422 83.1307 136.496 83.0779L136.663 83.5198Z" fill="white"/>
<path d="M136.941 80.809C136.941 80.7596 136.951 80.7106 136.971 80.6654C136.991 80.6202 137.021 80.5798 137.058 80.5469C137.095 80.514 137.138 80.4893 137.185 80.4745C137.232 80.4597 137.282 80.4551 137.331 80.461C137.38 80.4551 137.43 80.4597 137.477 80.4745C137.524 80.4893 137.568 80.514 137.605 80.5469C137.642 80.5798 137.671 80.6202 137.691 80.6654C137.711 80.7106 137.721 80.7596 137.721 80.809C137.708 80.9034 137.662 80.99 137.59 81.0528C137.519 81.1155 137.426 81.1501 137.331 81.1501C137.236 81.1501 137.144 81.1155 137.072 81.0528C137.001 80.99 136.954 80.9034 136.941 80.809ZM137.018 81.4598H137.644V83.6243H137.018V81.4598Z" fill="white"/>
<path d="M140.442 82.3855V83.6244H139.816V82.476C139.816 82.128 139.652 81.9644 139.378 81.9644C139.103 81.9644 138.856 82.1489 138.856 82.5491V83.6174H138.229V81.4529H138.828V81.7069C138.922 81.6136 139.035 81.541 139.159 81.4937C139.283 81.4464 139.415 81.4254 139.548 81.432C139.673 81.4244 139.797 81.4443 139.913 81.4904C140.029 81.5365 140.134 81.6076 140.219 81.6986C140.305 81.7897 140.369 81.8985 140.408 82.0172C140.446 82.1359 140.458 82.2617 140.442 82.3855Z" fill="white"/>
<path d="M143.192 81.4597V83.6243H142.596V83.3668C142.512 83.4612 142.409 83.5362 142.293 83.5867C142.177 83.6372 142.051 83.6619 141.925 83.6591C141.796 83.6696 141.667 83.6511 141.547 83.6052C141.426 83.5592 141.318 83.4868 141.229 83.3933C141.14 83.2999 141.073 83.1877 141.034 83.0651C140.994 82.9424 140.982 82.8125 140.999 82.6847V81.4597H141.636V82.5907C141.636 82.9387 141.796 83.1162 142.074 83.1162C142.353 83.1162 142.576 82.9283 142.576 82.5316V81.4597H143.192Z" fill="white"/>
<path d="M145.885 82.7195H144.246C144.279 82.8548 144.36 82.9735 144.474 83.0536C144.588 83.1336 144.727 83.1695 144.865 83.1545C144.965 83.1581 145.065 83.1415 145.158 83.1056C145.252 83.0697 145.337 83.0153 145.408 82.9457L145.756 83.2937C145.587 83.4567 145.375 83.569 145.145 83.618C144.915 83.6671 144.675 83.6509 144.454 83.5713C144.233 83.4917 144.038 83.3519 143.892 83.1676C143.746 82.9833 143.654 82.7618 143.627 82.5281C143.627 82.3806 143.658 82.2347 143.716 82.0991C143.774 81.9635 143.859 81.841 143.966 81.7388C144.072 81.6366 144.198 81.5567 144.336 81.504C144.474 81.4513 144.621 81.4268 144.768 81.4319C144.918 81.424 145.068 81.4475 145.208 81.5011C145.348 81.5548 145.475 81.6372 145.582 81.7432C145.688 81.8491 145.771 81.9762 145.825 82.1163C145.879 82.2563 145.903 82.4061 145.896 82.556C145.896 82.6012 145.889 82.6673 145.885 82.7195ZM144.239 82.3715H145.304C145.288 82.243 145.225 82.1251 145.126 82.0413C145.028 81.9574 144.901 81.9138 144.772 81.9191C144.644 81.9117 144.519 81.9523 144.421 82.0329C144.322 82.1135 144.257 82.2281 144.239 82.3541V82.3715Z" fill="white"/>
<path d="M137.279 19.8707C137.279 20.1751 137.189 20.4726 137.02 20.7256C136.85 20.9786 136.61 21.1758 136.329 21.2921C136.047 21.4084 135.738 21.4387 135.44 21.379C135.141 21.3194 134.867 21.1726 134.652 20.9571C134.437 20.7416 134.291 20.4672 134.232 20.1686C134.173 19.87 134.204 19.5606 134.321 19.2796C134.438 18.9986 134.635 18.7587 134.889 18.5901C135.142 18.4215 135.44 18.3318 135.744 18.3325C135.946 18.3325 136.146 18.3723 136.332 18.4497C136.519 18.527 136.688 18.6404 136.831 18.7833C136.973 18.9261 137.086 19.0957 137.163 19.2823C137.24 19.4689 137.28 19.6689 137.279 19.8707Z" fill="#263238"/>
<path d="M193.728 28.341V26.8655C193.726 26.8257 193.732 26.786 193.746 26.7485C193.759 26.7111 193.78 26.6767 193.807 26.6473C193.834 26.6178 193.866 26.594 193.902 26.5771C193.938 26.5602 193.977 26.5506 194.017 26.5488H196.234C196.273 26.5506 196.313 26.5602 196.349 26.5771C196.385 26.594 196.417 26.6178 196.444 26.6473C196.471 26.6767 196.491 26.7111 196.505 26.7485C196.518 26.786 196.524 26.8257 196.523 26.8655V28.341C196.524 28.3808 196.518 28.4205 196.505 28.458C196.491 28.4954 196.471 28.5299 196.444 28.5593C196.417 28.5887 196.385 28.6125 196.349 28.6294C196.313 28.6463 196.273 28.6559 196.234 28.6577H194.017C193.977 28.6559 193.938 28.6463 193.902 28.6294C193.866 28.6125 193.834 28.5887 193.807 28.5593C193.78 28.5299 193.759 28.4954 193.746 28.458C193.732 28.4205 193.726 28.3808 193.728 28.341Z" fill="#263238"/>
<path d="M197.932 29.1588H193.554C193.45 29.1578 193.351 29.116 193.278 29.0423C193.205 28.9687 193.164 28.8692 193.164 28.7655V26.3539C193.164 26.3027 193.174 26.252 193.194 26.2047C193.214 26.1574 193.242 26.1145 193.279 26.0783C193.315 26.0421 193.358 26.0134 193.405 25.9938C193.452 25.9742 193.503 25.9641 193.554 25.9641H197.869C197.962 25.9641 198.05 26.0008 198.115 26.066C198.181 26.1313 198.217 26.2198 198.217 26.3121V26.7576C198.217 26.7723 198.223 26.7865 198.234 26.7969C198.244 26.8074 198.258 26.8132 198.273 26.8132H198.746C198.808 26.8132 198.867 26.8378 198.911 26.8815C198.955 26.9252 198.979 26.9846 198.979 27.0464V27.8398C198.979 27.9164 198.949 27.9899 198.895 28.0441C198.841 28.0982 198.767 28.1287 198.691 28.1287H198.343C198.327 28.1287 198.312 28.1349 198.301 28.146C198.29 28.1571 198.283 28.1721 198.283 28.1878V28.8038C198.284 28.8504 198.276 28.8967 198.259 28.9399C198.241 28.9832 198.216 29.0225 198.183 29.0556C198.15 29.0887 198.111 29.1149 198.068 29.1326C198.025 29.1503 197.979 29.1592 197.932 29.1588ZM193.554 26.1381C193.497 26.1381 193.442 26.1608 193.402 26.2013C193.361 26.2418 193.338 26.2966 193.338 26.3539V28.7655C193.338 28.8231 193.361 28.8783 193.401 28.9193C193.442 28.9603 193.497 28.9838 193.554 28.9848H197.932C197.98 28.9838 198.026 28.964 198.06 28.9295C198.094 28.895 198.113 28.8486 198.113 28.8003V28.1878C198.113 28.126 198.138 28.0667 198.181 28.023C198.225 27.9792 198.284 27.9547 198.346 27.9547H198.694C198.725 27.9547 198.754 27.9426 198.775 27.921C198.797 27.8995 198.809 27.8703 198.809 27.8398V27.0534C198.808 27.0379 198.802 27.0234 198.791 27.0124C198.78 27.0015 198.765 26.995 198.75 26.9942H198.276C198.216 26.9933 198.158 26.9688 198.115 26.9259C198.072 26.883 198.048 26.8251 198.047 26.7645V26.3191C198.047 26.295 198.042 26.2712 198.033 26.249C198.023 26.2268 198.01 26.2067 197.993 26.1899C197.975 26.173 197.955 26.1598 197.933 26.1509C197.91 26.142 197.886 26.1376 197.862 26.1381H193.554Z" fill="#263238"/>
<path d="M60.0892 70.2299C59.9016 69.6694 59.5484 69.1791 59.0761 68.8236C58.6039 68.4682 58.0349 68.2645 57.4444 68.2394C57.7506 67.3798 57.1625 66.388 56.3273 66.0261C55.8988 65.8711 55.4425 65.8081 54.988 65.841C54.5336 65.874 54.0911 66.0023 53.6895 66.2175C53.1083 66.4924 52.5654 66.8752 51.9495 67.0179C51.1247 67.2058 50.2721 66.9448 49.43 66.917C48.5657 66.9005 47.7135 67.122 46.9666 67.5571C46.2197 67.9923 45.6068 68.6243 45.1948 69.3843C44.9129 69.9167 44.7389 70.5048 44.4292 71.0234C44.1786 71.4375 43.8515 71.7994 43.6044 72.217C43.2594 72.8283 43.1025 73.5279 43.1533 74.228C43.204 74.9281 43.4602 75.5977 43.8898 76.1529L55.7531 73.4281C56.2407 73.7653 56.8214 73.9419 57.4142 73.9332C58.007 73.9245 58.5822 73.7309 59.0597 73.3795C59.5372 73.0281 59.893 72.5364 60.0776 71.973C60.2621 71.4096 60.2662 70.8027 60.0892 70.2369V70.2299Z" fill="#263238"/>
<path d="M87.4176 113.911L75.9788 112.776L75.3176 118.717L88.2354 118.268L87.4176 113.911Z" fill="#FFBF9D"/>
<path d="M96.1072 117.391C96.0343 117.494 95.9328 117.573 95.8152 117.619C95.6977 117.665 95.5693 117.675 95.4459 117.648C95.3929 117.634 95.3416 117.614 95.2928 117.589C94.9448 117.419 95.1014 116.691 95.1014 116.691L93.4241 116.142C93.4241 116.142 90.9602 117.227 90.0137 118.059C89.0671 118.891 87.1601 117.795 87.1601 117.795L87.0348 114.015L90.654 111.652C90.654 111.652 90.4313 111.795 90.734 111.304C91.0368 110.814 92.0007 111.162 92.0007 111.162C92.1991 110.922 92.8638 110.928 92.8638 110.928L95.5886 111.687C95.8663 111.764 96.1231 111.903 96.3399 112.092C96.5568 112.282 96.7282 112.518 96.8414 112.783L97.7219 114.826C97.7219 114.826 98.1325 116.263 97.9829 116.566C97.9194 116.688 97.8134 116.782 97.6852 116.831C97.5569 116.879 97.4151 116.879 97.2869 116.831C97.2869 116.831 97.0085 117.687 96.7753 117.683C96.5397 117.633 96.3155 117.54 96.1141 117.408L96.1072 117.391Z" fill="#FFBF9D"/>
<path d="M90.7132 117.565C90.7788 117.537 90.8416 117.503 90.9011 117.464L91.4231 117.165C92.0786 116.802 92.7549 116.477 93.4484 116.194H93.4067L95.0806 116.757L95.0318 116.674C95.006 116.815 94.9944 116.958 94.997 117.102C94.9956 117.259 95.0403 117.412 95.1258 117.544C95.1811 117.611 95.2549 117.661 95.3381 117.687C95.4138 117.72 95.4955 117.738 95.5782 117.739C95.7489 117.739 95.9142 117.679 96.0445 117.568C96.0772 117.541 96.1075 117.51 96.135 117.478L96.1559 117.453L96.048 117.474L96.1002 117.506C96.1675 117.548 96.2372 117.586 96.309 117.62C96.3819 117.657 96.4575 117.689 96.5352 117.714C96.5757 117.73 96.6177 117.742 96.6605 117.749C96.7139 117.765 96.7706 117.765 96.824 117.749C96.9094 117.702 96.9803 117.632 97.0294 117.547C97.0747 117.476 97.1154 117.401 97.1512 117.325C97.2231 117.172 97.2858 117.015 97.3391 116.855L97.2277 116.907C97.34 116.951 97.4623 116.964 97.5813 116.944C97.7003 116.924 97.8115 116.871 97.9028 116.792C97.9972 116.707 98.0587 116.591 98.0768 116.465C98.0894 116.349 98.0894 116.233 98.0768 116.117C98.0154 115.674 97.9224 115.235 97.7984 114.805L97.3286 113.716L97.0328 113.02C96.9416 112.782 96.8249 112.554 96.6848 112.341C96.5363 112.134 96.3467 111.96 96.128 111.83C95.9104 111.709 95.6757 111.622 95.432 111.572L92.8603 110.876H92.8394C92.6794 110.878 92.5198 110.894 92.3627 110.925C92.1949 110.947 92.0388 111.023 91.9172 111.141H92.0182C91.8873 111.054 91.737 111 91.5805 110.984C91.424 110.968 91.266 110.991 91.1203 111.05C90.8613 111.182 90.6632 111.409 90.567 111.684L90.5948 111.649L88.0997 113.267L87.428 113.716C87.3475 113.766 87.2708 113.822 87.1984 113.883C87.2861 113.846 87.37 113.801 87.4489 113.747L88.1449 113.33L90.6679 111.764V111.743C90.754 111.505 90.9268 111.309 91.1516 111.193C91.2758 111.145 91.4095 111.129 91.5416 111.144C91.6736 111.159 91.8001 111.206 91.9103 111.28L91.966 111.315L92.0112 111.266C92.1089 111.179 92.2299 111.124 92.3592 111.106C92.5048 111.078 92.6528 111.064 92.8012 111.064L95.3659 111.788C95.5913 111.835 95.8084 111.916 96.0097 112.028C96.2069 112.148 96.3775 112.306 96.5108 112.494C96.6416 112.696 96.749 112.912 96.831 113.138C96.9319 113.368 97.0294 113.598 97.1303 113.834L97.6001 114.923C97.7222 115.344 97.814 115.774 97.875 116.208C97.8853 116.308 97.8853 116.41 97.875 116.51C97.8627 116.596 97.8208 116.675 97.7567 116.733C97.6887 116.79 97.6067 116.828 97.5192 116.843C97.4317 116.857 97.3419 116.848 97.259 116.817L97.1755 116.789L97.1477 116.869C97.0994 117.023 97.0401 117.173 96.9702 117.318C96.9216 117.452 96.8403 117.571 96.7336 117.666C96.7093 117.669 96.6848 117.669 96.6605 117.666L96.5596 117.638C96.49 117.614 96.4204 117.582 96.3508 117.551C96.2828 117.518 96.2166 117.482 96.1524 117.443L96.1037 117.415L95.9958 117.436V117.457C95.9732 117.482 95.9487 117.505 95.9227 117.527C95.8257 117.61 95.7028 117.658 95.5747 117.662C95.5102 117.662 95.4463 117.649 95.3868 117.624C95.3288 117.61 95.2772 117.577 95.2406 117.53C95.1258 117.299 95.0986 117.035 95.1641 116.785V116.719L95.1049 116.702L93.4276 116.159H93.4067H93.3858C92.6931 116.454 92.0211 116.796 91.3744 117.182C91.1482 117.318 90.9776 117.429 90.8628 117.509C90.8117 117.524 90.7617 117.543 90.7132 117.565Z" fill="#FF9A6C"/>
<path d="M92.3174 112.206C92.581 112.378 92.8667 112.513 93.1666 112.609C93.8954 112.884 94.657 113.062 95.432 113.138L95.3485 113.062C95.3764 113.208 95.4007 113.357 95.439 113.511C95.6365 114.374 95.998 115.192 96.5039 115.919C96.6564 116.137 96.8238 116.344 97.005 116.538C97.1338 116.677 97.2138 116.743 97.2242 116.737C97.2347 116.73 96.9667 116.406 96.6118 115.846C96.1498 115.115 95.8145 114.311 95.62 113.469C95.5852 113.323 95.5573 113.173 95.533 113.034V112.961H95.4634C94.702 112.886 93.9508 112.731 93.2222 112.498C92.9265 112.383 92.6244 112.285 92.3174 112.206Z" fill="#FF9A6C"/>
<path d="M94.6978 114.238C94.7772 115.406 95.3061 116.497 96.1733 117.283C96.2185 117.245 95.7104 116.667 95.3068 115.825C94.9031 114.983 94.7534 114.227 94.6978 114.238Z" fill="#FF9A6C"/>
<path d="M86.7877 116.58C86.7877 116.58 86.8121 116.608 86.8678 116.646C86.9505 116.701 87.0365 116.751 87.1253 116.796C87.4624 116.96 87.8269 117.062 88.2006 117.095C88.7746 117.147 89.3515 117.035 89.864 116.771C90.5178 116.437 91.0354 115.886 91.3291 115.212L91.2178 115.265C91.8595 115.496 92.531 115.634 93.2118 115.675C93.4645 115.689 93.7178 115.689 93.9704 115.675C94.2237 115.676 94.4753 115.635 94.7152 115.553C94.8493 115.508 94.962 115.416 95.0318 115.292C95.0613 115.229 95.0781 115.161 95.081 115.091C95.084 115.021 95.0732 114.951 95.0492 114.885C94.9999 114.755 94.901 114.65 94.7743 114.593L94.4681 114.461C93.6572 114.113 92.909 113.859 92.2792 113.653C91.6493 113.448 91.1273 113.305 90.7688 113.215C90.5843 113.157 90.3942 113.118 90.2016 113.1C90.3798 113.173 90.5623 113.234 90.748 113.285C91.096 113.396 91.611 113.559 92.2374 113.779C92.8638 113.998 93.5981 114.276 94.402 114.621L94.7047 114.753C94.7865 114.791 94.8501 114.86 94.8822 114.944C94.8999 114.987 94.909 115.032 94.909 115.078C94.909 115.124 94.8999 115.17 94.8822 115.212C94.831 115.297 94.7504 115.359 94.656 115.386C94.4314 115.459 94.1962 115.495 93.96 115.491C93.7164 115.491 93.4693 115.491 93.2188 115.491C92.555 115.45 91.9002 115.317 91.2734 115.094L91.1934 115.066L91.1621 115.143C90.8826 115.786 90.3914 116.314 89.7701 116.639C89.2837 116.897 88.7363 117.017 88.1867 116.987C87.8277 116.964 87.4749 116.882 87.1427 116.744C86.913 116.653 86.7947 116.58 86.7877 116.58Z" fill="#FF9A6C"/>
<path d="M50.3139 99.2114C48.9565 99.1814 47.665 98.6205 46.7165 97.6492C45.7679 96.6779 45.2379 95.3734 45.24 94.0158L45.0243 76.7863C44.8224 72.1614 47.2723 68.1837 51.772 68.1072H52.1896C56.383 68.2847 59.7377 71.7403 59.9013 76.052C60.0544 80.0645 60.2179 83.9377 60.1066 86.0814C59.8734 90.5219 55.4851 90.9534 55.4851 90.9534C55.4851 90.9534 55.4851 92.6064 55.4851 93.9114C55.4967 94.5977 55.3719 95.2795 55.118 95.9173C54.8642 96.555 54.4863 97.1361 54.0063 97.6268C53.5263 98.1175 52.9537 98.5081 52.3216 98.7759C51.6896 99.0437 51.0107 99.1835 50.3243 99.1871L50.3139 99.2114Z" fill="#FFBF9D"/>
<path d="M55.4851 91.0054C53.4839 90.9141 51.5536 90.2364 49.9345 89.0566C49.9345 89.0566 51.1525 92.4531 55.4747 92.2339L55.4851 91.0054Z" fill="#FF9A6C"/>
<path d="M45.24 80.0887C45.1669 80.0539 42.3098 79.0621 42.282 82.1001C42.2542 85.1382 45.2261 84.5361 45.233 84.4561C45.24 84.3761 45.24 80.0887 45.24 80.0887Z" fill="#FFBF9D"/>
<path d="M44.3456 83.2939C44.3456 83.2939 44.2934 83.3322 44.2064 83.3705C44.1452 83.396 44.0796 83.4092 44.0133 83.4092C43.947 83.4092 43.8813 83.396 43.8201 83.3705C43.5104 83.2487 43.2494 82.7371 43.2425 82.1873C43.2353 81.9275 43.2865 81.6695 43.3921 81.4321C43.4197 81.3384 43.4695 81.2527 43.5374 81.1824C43.6053 81.1121 43.6891 81.0593 43.7819 81.0284C43.8419 81.0127 43.9056 81.0192 43.9612 81.0467C44.0168 81.0742 44.0606 81.1208 44.0846 81.1781C44.1264 81.2616 44.1055 81.3242 44.1229 81.3277C44.1403 81.3312 44.1855 81.279 44.1612 81.1537C44.1477 81.078 44.1068 81.0098 44.0463 80.9623C44.008 80.9293 43.9629 80.905 43.9142 80.8912C43.8655 80.8773 43.8144 80.8743 43.7645 80.8823C43.6418 80.9063 43.5275 80.9615 43.4324 81.0425C43.3373 81.1236 43.2647 81.2278 43.2216 81.3451C43.0939 81.6084 43.0307 81.8982 43.0371 82.1907C43.0371 82.8032 43.3503 83.3809 43.7749 83.5131C43.8539 83.5369 43.9372 83.5424 44.0186 83.5291C44.1 83.5158 44.1773 83.4842 44.2447 83.4366C44.3387 83.367 44.3561 83.3009 44.3456 83.2939Z" fill="#FF9A6C"/>
<path d="M47.3628 72.5025C47.4318 72.1139 47.6058 71.7516 47.8658 71.4547C48.1259 71.1578 48.4622 70.9377 48.8383 70.8182C49.4866 70.6 50.1897 70.6086 50.8324 70.8425C52.4993 71.448 55.3564 72.3563 56.0837 71.7752C57.1486 70.94 57.4061 70.3832 57.4061 70.3832L57.9942 71.0235C58.471 70.752 57.0372 69.1582 55.861 68.6084C54.0862 67.7801 51.3752 67.2686 49.7362 67.7453C47.763 68.3195 46.1239 69.3252 45.1321 71.1731C44.1769 73.0595 43.7272 75.1614 43.8271 77.2736C43.8271 77.9174 43.7262 79.7618 44.3456 79.9044C44.8294 80.0123 45.4453 80.2281 45.4105 81.1538C45.3864 81.4917 45.4964 81.8256 45.7168 82.0829C46.2562 82.6745 46.9174 82.1177 47.2236 81.5609C47.8744 80.3708 47.9474 78.9509 48.0031 77.5868C48.0958 76.6191 48.0335 75.6429 47.8187 74.6949C47.5942 74.0918 47.4344 73.4665 47.3419 72.8296C47.3375 72.7201 47.3445 72.6105 47.3628 72.5025Z" fill="#263238"/>
<path d="M57.768 125.402L43.6322 122.291L34.546 99.7786C34.546 99.7786 22.4042 102.472 20.4032 109.272C18.6632 115.136 15.0928 141.055 23.222 157.032C24.2579 159.044 25.8299 160.731 27.7643 161.907C29.6988 163.082 31.9205 163.7 34.184 163.692H96.048C99.8199 163.693 103.46 162.303 106.271 159.789C109.083 157.275 110.87 153.813 111.29 150.065C111.638 146.933 111.882 143.964 111.833 142.029L101.901 134.408L57.768 125.402Z" fill="#455A64"/>
<g opacity="0.3">
<path d="M95.5608 133.232C99.9143 138.918 105.211 144.02 111.544 147.368L111.847 139.649L100.147 131.321L95.5608 133.232Z" fill="black"/>
</g>
<path d="M48.8696 95.4009C48.8696 95.8115 52.0852 97.1409 53.5363 96.5562C55.7496 95.6723 55.4747 93.9358 55.4747 93.9358L56.7031 95.2304L69.0119 113.988L78.1608 120.025L63.517 124.664L48.1632 107.028L48.8696 95.4009Z" fill="#F5F5F5"/>
<path d="M44.9894 89.1055L44.6658 89.711L43.2042 92.4358L37.1246 96.3126L49.6283 111.176L55.332 124.664L69.0084 128.945C69.0084 128.945 62.5008 118.94 60.4789 113.824C58.457 108.708 58.2517 108.952 56.4073 105.2C55.1535 102.558 54.0384 99.8511 53.0665 97.0921L44.9894 89.1055Z" fill="#008080"/>
<path d="M74.2841 115.884L76.9671 118.386L77.7258 119.931L67.7521 115.292L60.552 105.2C60.552 105.2 57.9872 99.5106 57.1068 97.4714C56.1776 95.3277 55.4851 94.1132 55.4851 94.1132V92.4219L59.1147 95.7L62.1458 96.6014L67.2127 104.605L74.2841 115.884Z" fill="#008080"/>
<path d="M71.2113 106.446C71.2113 106.446 70.0002 103.864 69.0119 101.717C66.7847 96.8798 61.5334 96.4204 61.5334 96.4204L67.338 112.519L74.4477 117.561C74.4477 117.561 76.473 118.257 76.7271 117.561C76.7271 117.561 78.2061 112.223 78.1608 112.202C78.1156 112.181 73.1009 110.681 73.1009 110.681L71.0825 106.157" fill="#008080"/>
<path d="M81.9053 101.421L74.9975 112.929L82.2324 112.717L88.6113 102.054C88.6673 101.961 88.6975 101.854 88.6989 101.745C88.7002 101.636 88.6725 101.529 88.6187 101.434C88.5649 101.339 88.4869 101.26 88.3927 101.205C88.2984 101.151 88.1913 101.122 88.0823 101.122H82.4343C82.3277 101.122 82.223 101.149 82.1303 101.202C82.0376 101.254 81.9601 101.33 81.9053 101.421Z" fill="#263238"/>
<path d="M55.332 114.436L72.6242 112.38L75.5299 107.288L77.8059 106.039C77.9946 105.935 78.2091 105.887 78.4243 105.9C78.6395 105.914 78.8463 105.989 79.0204 106.116L79.2362 106.272L80.9239 106.06C81.2116 106.022 81.5037 106.08 81.7557 106.224L82.9528 106.92C83.0391 106.97 83.1107 107.042 83.1607 107.129C83.2108 107.216 83.2374 107.314 83.2382 107.414C83.238 107.498 83.2194 107.581 83.1836 107.657C83.1478 107.733 83.0956 107.801 83.0309 107.855C82.9661 107.908 82.8903 107.947 82.8089 107.969C82.7274 107.99 82.6423 107.993 82.5596 107.978L81.3972 107.765L79.6155 108.346C79.6155 108.346 80.7639 108.468 80.91 109.338C81.0562 110.208 80.475 110.229 80.475 110.229C80.475 110.229 81.6826 110.925 80.823 111.969C80.823 111.969 81.8322 112.641 80.7012 113.914C79.9391 114.777 74.4372 117.589 74.4372 117.589L55.332 124.664V114.436Z" fill="#FFBF9D"/>
<path d="M80.7952 111.962C80.7952 111.962 80.9239 111.962 81.077 112.119C81.1766 112.234 81.2456 112.373 81.2778 112.522C81.3101 112.671 81.3044 112.825 81.2615 112.971C81.1102 113.385 80.8535 113.752 80.5168 114.036C80.1411 114.404 79.7348 114.739 79.3022 115.038C78.512 115.568 77.6771 116.028 76.8071 116.413C76.4585 116.594 76.0938 116.742 75.7178 116.855C76.053 116.646 76.4017 116.46 76.7618 116.298C77.605 115.884 78.4189 115.414 79.1978 114.889C79.6242 114.596 80.0268 114.27 80.4019 113.914C80.7249 113.655 80.9774 113.319 81.1362 112.937C81.1802 112.808 81.193 112.671 81.1737 112.537C81.1543 112.403 81.1033 112.275 81.0248 112.164C80.958 112.086 80.8807 112.018 80.7952 111.962Z" fill="#FF9A6C"/>
<path d="M79.1735 106.318C78.9093 106.481 78.6163 106.592 78.3104 106.645C78.0191 106.754 77.7096 106.805 77.3987 106.798C77.6622 106.633 77.9554 106.522 78.2617 106.471C78.5531 106.362 78.8626 106.31 79.1735 106.318Z" fill="#FF9A6C"/>
<path d="M81.4007 107.751C81.0243 107.969 80.6205 108.135 80.2001 108.245C79.7968 108.41 79.373 108.519 78.9403 108.569C79.3151 108.348 79.7193 108.182 80.1409 108.075C80.5436 107.908 80.9676 107.799 81.4007 107.751Z" fill="#FF9A6C"/>
<path d="M79.344 110.058C79.2918 110.058 79.2674 109.902 79.2083 109.731C79.1491 109.561 79.0795 109.429 79.1178 109.383C79.1561 109.338 79.3092 109.453 79.3788 109.665C79.4484 109.877 79.3753 110.065 79.344 110.058Z" fill="#FF9A6C"/>
<path d="M79.9182 112.056C79.866 112.056 79.8869 111.795 79.8138 111.513C79.7407 111.231 79.6154 111.015 79.6537 110.981C79.692 110.946 79.9078 111.134 80.0017 111.468C80.0957 111.802 79.9634 112.056 79.9182 112.056Z" fill="#FF9A6C"/>
<path d="M37.6118 96.0027C37.0342 96.3507 32.1448 99.6915 32.8582 105.162C33.5716 110.633 44.3944 123.001 46.6529 123.237L55.3355 124.664V114.436L51.1595 114.2L45.7028 103.495L37.6118 96.0027Z" fill="#008080"/>
<path d="M55.332 113.942C55.2298 113.961 55.1262 113.97 55.0223 113.97L54.1453 114.005L51.0342 114.075H50.9925L50.9646 114.04L48.7653 111.082C47.4533 109.31 46.2771 107.699 45.4314 106.526L44.4396 105.134C44.3093 104.968 44.1929 104.791 44.0916 104.605C44.2386 104.756 44.3736 104.918 44.4953 105.089L45.5393 106.446C46.4128 107.595 47.6273 109.196 48.9184 110.97L51.1003 113.939L51.0307 113.904H54.1419H55.0188C55.1244 113.904 55.2296 113.917 55.332 113.942Z" fill="#263238"/>
<path d="M53.2231 98.4283C53.1576 98.33 53.1006 98.2264 53.0526 98.1185L52.6245 97.2207H52.7185C52.4026 97.6801 52.1222 98.1629 51.8798 98.6649C51.5729 99.3332 51.2084 99.9736 50.7906 100.579L50.721 100.676L50.6479 100.582C50.0841 99.8864 49.4403 99.1521 48.7478 98.3969C47.234 96.7509 45.7864 95.3241 44.7528 94.2801L43.5313 93.0377C43.3769 92.892 43.2349 92.7337 43.1068 92.5645C43.2773 92.6923 43.4379 92.8331 43.587 92.9855L44.8502 94.1827C45.8942 95.2023 47.3732 96.6187 48.894 98.2647C49.59 99.0233 50.2303 99.7681 50.7906 100.468H50.6444C51.0598 99.871 51.4275 99.2427 51.7441 98.5883C51.9976 98.0844 52.2945 97.6035 52.6315 97.1511L52.6872 97.0745L52.722 97.1581C52.8786 97.5339 53.0074 97.8367 53.1048 98.0768C53.1591 98.1884 53.1989 98.3065 53.2231 98.4283Z" fill="#263238"/>
<path d="M59.16 95.8114C59.2761 95.9667 59.3644 96.141 59.421 96.3264C59.5993 96.7967 59.7515 97.2766 59.8769 97.7637L59.9952 98.1882L59.7238 97.8402C59.3354 97.3584 58.9095 96.9081 58.4501 96.4935C58.0464 96.1246 57.6532 95.7975 57.2947 95.4703L57.4409 95.4147C57.3906 95.9851 57.3731 96.5579 57.3887 97.1303C57.4019 97.3576 57.3724 97.5855 57.3017 97.8019C57.2808 97.8019 57.3017 97.5549 57.2773 97.1338C57.2321 96.5547 57.2321 95.9729 57.2773 95.3938L57.2947 95.2302L57.4235 95.3381C57.7715 95.6409 58.1891 95.9784 58.5963 96.3543C59.0652 96.7778 59.4939 97.2438 59.8769 97.7463L59.7238 97.8193C59.5741 97.2173 59.4524 96.7162 59.341 96.3717C59.2674 96.1895 59.2069 96.0022 59.16 95.8114Z" fill="#263238"/>
<path d="M71.7193 112.488C71.571 112.372 71.4325 112.243 71.3052 112.105L70.2369 111.012C69.7879 110.542 69.2555 110.017 68.6709 109.366C68.4029 109.018 68.1663 108.646 67.8879 108.28C67.6053 107.885 67.3629 107.463 67.164 107.02C66.7499 106.123 66.4367 105.235 66.1548 104.431C65.8729 103.627 65.6259 102.9 65.3997 102.302C65.1735 101.703 64.9647 101.223 64.8046 100.91C64.7103 100.748 64.6266 100.581 64.554 100.408C64.554 100.408 64.5923 100.443 64.6445 100.52C64.727 100.631 64.8026 100.747 64.8707 100.868C65.1203 101.317 65.34 101.782 65.5284 102.26C65.7755 102.858 66.0365 103.579 66.3253 104.379C66.6142 105.18 66.9309 106.06 67.3415 106.947C67.5342 107.378 67.7673 107.789 68.0375 108.176C68.3194 108.548 68.556 108.934 68.8101 109.265C69.3564 109.888 69.9028 110.452 70.3308 110.925L71.3574 112.056C71.4901 112.189 71.6111 112.334 71.7193 112.488Z" fill="#263238"/>
<path d="M76.7375 118.261L109.561 117.339C110.081 117.325 110.598 117.421 111.078 117.621C112.272 118.129 114.419 119.434 115.891 122.559C118.024 127.083 127.977 146.223 127.977 146.223L117.913 151.38L105.569 128.482L67.512 125.245L67.954 122.204L76.7375 118.261Z" fill="#263238"/>
<path d="M114.924 147.347L120.168 156.35L120.516 158.625C120.566 158.956 120.682 159.274 120.855 159.561C121.029 159.847 121.257 160.096 121.527 160.294C121.796 160.493 122.103 160.636 122.428 160.715C122.753 160.795 123.091 160.81 123.422 160.759L139.384 158.323C139.573 158.298 139.753 158.23 139.912 158.124C140.07 158.018 140.201 157.877 140.297 157.713C140.392 157.548 140.448 157.363 140.46 157.174C140.473 156.984 140.442 156.793 140.369 156.618C140.301 156.462 140.196 156.324 140.064 156.217C139.932 156.109 139.777 156.034 139.611 155.998C138.274 155.65 127.974 151.874 127.974 151.874L123.679 143.258L114.924 147.347Z" fill="#E0E0E0"/>
<path d="M119.319 149.431C118.881 148.987 118.486 148.502 118.139 147.984C117.74 147.501 117.39 146.98 117.095 146.428C117.532 146.873 117.925 147.357 118.271 147.876C118.67 148.359 119.021 148.88 119.319 149.431Z" fill="#263238"/>
<path d="M122.451 148.172C122.011 147.723 121.64 147.212 121.351 146.654C121.01 146.126 120.748 145.552 120.572 144.949C120.62 144.925 120.989 145.676 121.508 146.564C122.026 147.451 122.496 148.14 122.451 148.172Z" fill="#263238"/>
<path d="M124.64 160.47C124.605 160.47 124.521 160.16 124.292 159.69C123.984 159.081 123.547 158.547 123.01 158.126C122.472 157.705 121.849 157.407 121.184 157.254C120.672 157.133 120.342 157.129 120.342 157.094C120.629 157.029 120.928 157.029 121.215 157.094C121.919 157.213 122.582 157.506 123.143 157.946C123.704 158.387 124.146 158.962 124.427 159.617C124.559 159.883 124.631 160.174 124.64 160.47Z" fill="#263238"/>
<path d="M135.396 158.921C135.264 158.747 135.177 158.542 135.142 158.326C135.017 157.806 135.043 157.262 135.219 156.757C135.4 156.261 135.684 155.81 136.051 155.431C136.186 155.26 136.354 155.118 136.545 155.013C136.566 155.038 136.402 155.222 136.162 155.528C135.848 155.919 135.596 156.357 135.417 156.826C135.257 157.298 135.213 157.802 135.288 158.295C135.34 158.501 135.377 158.71 135.396 158.921Z" fill="#263238"/>
<path d="M66.6873 122.74C66.6873 122.74 100.558 119.343 102.204 119.479C105.242 119.729 110.845 124.521 120.787 131.196C125.939 134.697 130.719 138.714 135.055 143.185L131.878 150.437C131.878 150.437 109.606 142.318 106.109 139.398C103.206 136.962 97.9098 133.517 97.9098 133.517L84.8459 133.649L75.1332 134.505C72.7374 134.718 70.3269 134.321 68.1256 133.351C65.9244 132.382 64.0039 130.872 62.5426 128.962L58.7737 124.038L66.6873 122.74Z" fill="#263238"/>
<path d="M97.7463 133.416C97.7463 133.416 97.8019 133.448 97.9029 133.517L98.3587 133.83L100.116 135.066C101.644 136.155 103.885 137.721 106.634 139.798C106.808 139.927 106.982 140.077 107.156 140.192L107.716 140.54C108.12 140.742 108.524 140.964 108.952 141.163L110.26 141.772L111.652 142.381C113.534 143.195 115.563 144.044 117.739 144.928C122.082 146.692 126.954 148.61 132.212 150.632L132.097 150.684L134.975 143.376L134.996 143.48L131.043 139.45C130.114 138.647 129.118 137.791 128.102 136.945C122.041 131.95 115.702 127.303 109.115 123.025C108.224 122.261 107.261 121.584 106.241 121.003C105.272 120.439 104.241 119.99 103.168 119.667C102.904 119.597 102.639 119.541 102.378 119.475L101.588 119.353L100.798 119.312H96.9702L86.7425 119.291L80.1027 119.263H78.3627H77.9103C77.8593 119.266 77.8081 119.266 77.7571 119.263H77.9103H78.3627H80.1027L86.7425 119.239L96.9702 119.218H100.798L101.602 119.256L102.409 119.378C102.674 119.444 102.942 119.5 103.21 119.573C104.297 119.895 105.341 120.346 106.321 120.916C107.354 121.5 108.329 122.183 109.23 122.955C115.83 127.227 122.179 131.875 128.245 136.875C129.265 137.721 130.26 138.577 131.189 139.384L135.142 143.418L135.184 143.463L135.163 143.522L132.275 150.83L132.244 150.914L132.16 150.882C126.902 148.853 122.03 146.926 117.69 145.151C115.522 144.263 113.49 143.411 111.611 142.586L110.219 141.97L108.896 141.288C108.472 141.083 108.064 140.86 107.661 140.655L107.087 140.307C106.899 140.192 106.739 140.042 106.565 139.913C103.829 137.825 101.595 136.242 100.081 135.135L98.3413 133.879L97.8959 133.552C97.788 133.458 97.7463 133.416 97.7463 133.416Z" fill="#455A64"/>
<path d="M124.674 148.596L134.07 152.288L135.633 153.98C135.861 154.226 136.134 154.424 136.439 154.564C136.743 154.704 137.072 154.783 137.407 154.796C137.742 154.809 138.076 154.756 138.39 154.64C138.704 154.524 138.992 154.347 139.238 154.119L151.091 143.15C151.233 143.023 151.344 142.866 151.416 142.689C151.487 142.513 151.518 142.323 151.504 142.133C151.491 141.943 151.434 141.759 151.338 141.594C151.243 141.43 151.11 141.289 150.952 141.184C150.808 141.094 150.644 141.039 150.475 141.024C150.306 141.009 150.135 141.034 149.978 141.097C148.68 141.563 138.027 144.197 138.027 144.197L130.883 138.504L124.674 148.596Z" fill="#E0E0E0"/>
<path d="M124.674 148.596C124.674 148.596 124.706 148.537 124.775 148.419L125.092 147.897C125.374 147.427 125.788 146.748 126.314 145.878C127.385 144.114 128.931 141.58 130.838 138.469L130.876 138.403L130.938 138.452L138.083 144.131H138.01L144.364 142.53L147.723 141.657C148.29 141.504 148.864 141.354 149.435 141.187L149.859 141.055C150.007 140.998 150.161 140.962 150.319 140.947C150.483 140.94 150.646 140.968 150.799 141.028C150.952 141.088 151.09 141.179 151.206 141.295C151.432 141.521 151.57 141.822 151.594 142.141C151.617 142.46 151.525 142.778 151.335 143.035C151.24 143.161 151.132 143.278 151.015 143.383L150.691 143.682L150.047 144.277L147.521 146.612L142.743 151.025L140.519 153.078L139.454 154.063C139.281 154.231 139.092 154.381 138.89 154.512C138.395 154.816 137.813 154.947 137.235 154.884C136.658 154.821 136.117 154.568 135.699 154.164C135.101 153.541 134.558 152.932 134.025 152.358H134.05C131.151 151.203 128.805 150.27 127.173 149.616L125.322 148.867L124.842 148.673L124.685 148.606C124.685 148.606 124.748 148.624 124.862 148.669L125.353 148.854L127.232 149.577L134.095 152.24C134.631 152.81 135.184 153.423 135.769 154.032C136.083 154.331 136.47 154.543 136.891 154.646C137.312 154.749 137.753 154.74 138.17 154.62C138.387 154.557 138.594 154.465 138.786 154.345C138.979 154.218 139.158 154.072 139.322 153.91C139.67 153.586 140.018 153.256 140.387 152.925C141.106 152.257 141.846 151.57 142.607 150.865C144.124 149.473 145.722 147.977 147.378 146.445C148.204 145.677 149.045 144.898 149.901 144.107L150.545 143.512C150.763 143.322 150.97 143.12 151.164 142.906C151.33 142.683 151.411 142.409 151.392 142.132C151.373 141.855 151.255 141.594 151.06 141.396C150.961 141.298 150.843 141.222 150.713 141.173C150.582 141.124 150.444 141.103 150.305 141.111C150.164 141.125 150.026 141.159 149.894 141.211L149.459 141.344C148.885 141.511 148.314 141.66 147.743 141.813L144.382 142.683L138.027 144.274H137.985L137.954 144.249L130.848 138.556H130.949L126.394 145.885L125.13 147.9L124.782 148.425C124.72 148.53 124.674 148.596 124.674 148.596Z" fill="#263238"/>
<path d="M140.073 153.197C140.049 153.221 139.802 153.005 139.339 152.751C138.744 152.417 138.082 152.219 137.401 152.17C136.72 152.121 136.037 152.224 135.4 152.469C134.909 152.654 134.631 152.835 134.61 152.817C134.818 152.608 135.068 152.445 135.344 152.341C135.993 152.045 136.706 151.917 137.417 151.968C138.128 152.019 138.816 152.248 139.416 152.633C139.675 152.769 139.899 152.962 140.073 153.197Z" fill="#263238"/>
<path d="M148.119 145.892C147.913 145.82 147.726 145.7 147.573 145.544C147.179 145.183 146.898 144.717 146.762 144.201C146.635 143.688 146.616 143.155 146.706 142.635C146.722 142.418 146.783 142.207 146.884 142.015C146.901 142.228 146.892 142.442 146.856 142.652C146.811 143.152 146.847 143.657 146.964 144.145C147.095 144.627 147.341 145.07 147.681 145.436C147.942 145.715 148.14 145.861 148.119 145.892Z" fill="#263238"/>
<path d="M91.9868 133.42C91.2595 129.971 89.7735 126.442 86.8329 124.504C84.6023 123.028 81.8426 122.667 79.1769 122.339L23.6849 115.515C23.1872 124.26 26.9317 135.146 30.7527 143.031C31.3443 144.256 32.0299 145.509 33.1644 146.257C34.5564 147.169 36.3242 147.159 37.9807 147.117C56.6509 146.64 75.3281 145.847 93.8939 143.804C92.8499 140.439 92.7107 136.865 91.9868 133.42Z" fill="#455A64"/>
<path d="M44.1021 118.024C43.8832 118.027 43.6645 118.013 43.4478 117.982L41.673 117.791C40.1766 117.617 38.113 117.363 35.8371 117.05C33.5611 116.737 31.501 116.42 30.0185 116.159C29.2738 116.027 28.6752 115.919 28.2785 115.811C28.0626 115.775 27.8497 115.723 27.6417 115.654C27.8603 115.665 28.0778 115.691 28.2924 115.734L30.0533 116.006C31.5427 116.229 33.5994 116.524 35.8753 116.837L41.7043 117.634L43.4722 117.888C43.6854 117.917 43.896 117.963 44.1021 118.024Z" fill="#263238"/>
<path d="M44.3874 163.675C44.3655 163.641 44.3469 163.605 44.3317 163.567C44.29 163.487 44.2412 163.379 44.1786 163.247L43.6148 162.004L43.2077 161.124C43.0685 160.776 42.9327 160.428 42.7761 160.031C42.4769 159.248 42.101 158.364 41.7809 157.352C41.6138 156.851 41.4329 156.325 41.2554 155.775C41.0779 155.225 40.9074 154.641 40.7508 154.035C40.4028 152.842 40.1035 151.54 39.7834 150.176C38.4922 144.222 38.069 138.113 38.5271 132.038C38.6558 130.646 38.7568 129.317 38.9516 128.085C39.0456 127.469 39.1082 126.87 39.2126 126.3C39.317 125.729 39.4214 125.186 39.5189 124.664C39.6963 123.62 39.9469 122.691 40.1348 121.88C40.2358 121.469 40.3193 121.09 40.4132 120.742C40.5072 120.394 40.6081 120.081 40.6916 119.795C40.8552 119.235 40.9874 118.797 41.0779 118.487L41.1858 118.139C41.1957 118.099 41.2097 118.061 41.2276 118.024C41.2249 118.065 41.2167 118.104 41.2032 118.142L41.1162 118.49L40.7682 119.806L40.5072 120.756C40.4202 121.104 40.3402 121.49 40.2462 121.897C40.0652 122.719 39.8251 123.637 39.6581 124.681C39.5676 125.2 39.4667 125.746 39.3658 126.314C39.2648 126.881 39.2057 127.479 39.1187 128.095C38.9273 129.324 38.8333 130.65 38.708 132.042C38.2781 138.103 38.6998 144.194 39.9608 150.138C40.2775 151.498 40.5524 152.8 40.9109 153.99C41.0814 154.589 41.2241 155.17 41.4016 155.73C41.579 156.29 41.7495 156.805 41.9166 157.306C42.2263 158.319 42.5917 159.203 42.8806 159.993C43.0337 160.386 43.1624 160.755 43.2981 161.089L43.6879 161.99L44.2169 163.247L44.3526 163.577C44.3675 163.609 44.3792 163.641 44.3874 163.675Z" fill="#263238"/>
<path d="M43.7993 146.042C43.0735 146.108 42.3431 146.108 41.6173 146.042C40.8867 146.041 40.1576 145.975 39.4388 145.843C40.1659 145.779 40.8972 145.779 41.6243 145.843C42.3537 145.846 43.0815 145.912 43.7993 146.042Z" fill="#263238"/>
<path d="M43.2947 148.596C42.5198 148.528 41.762 148.329 41.0536 148.008C40.3206 147.747 39.6379 147.362 39.0352 146.87C39.0665 146.821 39.9504 147.354 41.1232 147.827C42.2959 148.3 43.3051 148.52 43.2947 148.596Z" fill="#263238"/>
<path d="M38.4331 131.154C37.9993 131.427 37.5009 131.579 36.9889 131.596C36.4827 131.675 35.9646 131.621 35.4855 131.44C35.4855 131.38 36.1572 131.481 36.9715 131.401C37.7858 131.321 38.4122 131.102 38.4331 131.154Z" fill="#263238"/>
<path d="M39.5432 130.319C39.0043 130.432 38.4433 130.36 37.9494 130.117C37.4301 129.933 36.9885 129.579 36.6966 129.112C37.1124 129.428 37.5576 129.704 38.026 129.936C38.8194 130.281 39.5432 130.256 39.5432 130.319Z" fill="#263238"/>
<path d="M59.0835 70.6997C58.945 70.3389 58.722 70.0166 58.4331 69.7598C58.1443 69.5031 57.7981 69.3194 57.4235 69.2242C56.6697 69.0376 55.8787 69.0666 55.1406 69.3077L47.9301 70.9572C48.9741 71.6532 51.1212 72.3075 52.3531 72.4397C54.1523 72.6311 55.419 72.6485 56.4909 72.0291C56.5606 72.2068 56.6672 72.3677 56.8037 72.5012C56.9402 72.6347 57.1034 72.7377 57.2827 72.8035C57.4619 72.8693 57.653 72.8963 57.8435 72.8828C58.0339 72.8693 58.2193 72.8155 58.3875 72.7251C58.7127 72.5134 58.9579 72.1991 59.084 71.8321C59.2101 71.4652 59.2099 71.0666 59.0835 70.6997Z" fill="#263238"/>
<path d="M131.123 146.341C129.658 146.037 128.249 145.506 126.947 144.768C126.968 144.719 127.886 145.116 129.035 145.547C130.183 145.979 131.137 146.292 131.123 146.341Z" fill="#263238"/>
<path d="M132.71 143.258C132.079 142.998 131.463 142.706 130.862 142.384C130.235 142.118 129.623 141.818 129.028 141.486C129.694 141.652 130.336 141.898 130.942 142.221C131.573 142.49 132.167 142.838 132.71 143.258Z" fill="#263238"/>
<path d="M75.2759 121.421L89.8118 121.598L107.365 118.118C107.641 118.061 107.892 117.921 108.087 117.717C108.281 117.513 108.409 117.255 108.454 116.977L110.841 101.171C110.868 100.989 110.852 100.804 110.794 100.63C110.736 100.456 110.638 100.298 110.507 100.169C110.377 100.04 110.218 99.9442 110.043 99.8885C109.868 99.8327 109.683 99.8189 109.502 99.8483L91.5623 102.768C91.3137 102.809 91.0849 102.929 90.91 103.11C90.735 103.291 90.6233 103.524 90.5914 103.774L88.5904 119.848L75.2968 119.782C75.0795 119.782 74.8712 119.868 74.7172 120.021C74.5633 120.174 74.4764 120.382 74.4755 120.6C74.4745 120.814 74.5579 121.02 74.7076 121.174C74.8573 121.328 75.0614 121.416 75.2759 121.421Z" fill="#E0E0E0"/>
<path d="M75.2759 121.421C75.182 121.428 75.0877 121.412 75.001 121.375C74.8694 121.328 74.752 121.248 74.6601 121.143C74.5681 121.037 74.5046 120.91 74.4755 120.773C74.4519 120.661 74.4515 120.546 74.4741 120.433C74.4967 120.321 74.542 120.215 74.6071 120.121C74.6723 120.027 74.7559 119.947 74.8529 119.886C74.95 119.825 75.0584 119.785 75.1715 119.768C75.7039 119.747 76.306 119.768 76.995 119.768L88.5869 119.795L88.5243 119.851C89.095 115.226 89.7736 109.759 90.5218 103.676C90.5652 103.473 90.6581 103.284 90.7923 103.125C90.9265 102.967 91.0977 102.844 91.2909 102.768C91.4809 102.707 91.6769 102.666 91.8755 102.646L92.4532 102.549L94.7952 102.169L99.622 101.379L104.623 100.572L107.177 100.158L108.468 99.9455L109.115 99.8411C109.337 99.793 109.564 99.7685 109.791 99.7681C110.039 99.7896 110.275 99.884 110.47 100.039C110.665 100.195 110.81 100.404 110.887 100.642C110.952 100.876 110.96 101.124 110.908 101.362L110.803 102.037C110.669 102.937 110.534 103.832 110.4 104.72C110.132 106.491 109.867 108.242 109.606 109.958C109.345 111.673 109.091 113.354 108.844 115.004L108.656 116.228C108.625 116.434 108.597 116.636 108.566 116.837C108.546 117.051 108.488 117.26 108.395 117.453C108.297 117.645 108.158 117.813 107.988 117.945C107.818 118.077 107.62 118.169 107.41 118.216L106.234 118.449L89.8258 121.678L79.17 121.522L76.2921 121.469L75.516 121.452H76.2642L79.1457 121.469L89.8014 121.57L106.203 118.299L107.375 118.062C107.561 118.022 107.736 117.941 107.886 117.825C108.037 117.709 108.159 117.56 108.245 117.391C108.33 117.214 108.381 117.023 108.395 116.827L108.489 116.218C108.548 115.811 108.611 115.4 108.673 114.99L109.432 109.944C109.69 108.229 109.953 106.489 110.222 104.724C110.354 103.837 110.489 102.943 110.626 102.041L110.727 101.365C110.781 101.157 110.781 100.937 110.727 100.729C110.662 100.525 110.539 100.346 110.372 100.213C110.205 100.079 110.003 99.9985 109.791 99.9803C109.579 99.9822 109.368 100.006 109.161 100.05L108.51 100.158L107.222 100.367L104.664 100.781L99.6672 101.595L94.8405 102.378L92.4984 102.757L91.9207 102.851C91.7327 102.87 91.5472 102.908 91.3674 102.966C91.2006 103.031 91.0527 103.137 90.9372 103.274C90.8217 103.41 90.7423 103.574 90.7062 103.749C89.9406 109.811 89.2516 115.285 88.6704 119.907V119.963H88.6113L77.0194 119.879C76.3234 119.879 75.7213 119.858 75.2028 119.879C75.0857 119.895 74.9737 119.937 74.8749 120.002C74.7762 120.067 74.6932 120.154 74.6321 120.255C74.5719 120.355 74.5342 120.466 74.5216 120.582C74.5091 120.698 74.5219 120.815 74.5594 120.926C74.5968 121.036 74.6579 121.137 74.7384 121.221C74.8189 121.305 74.9168 121.371 75.0253 121.414C75.1083 121.426 75.1924 121.428 75.2759 121.421Z" fill="#263238"/>
<path d="M92.1434 103.276C92.1921 103.276 91.7119 107.476 91.0681 112.648C90.4243 117.819 89.864 122.005 89.8118 121.998C89.7596 121.991 90.2468 117.798 90.8906 112.627C91.5344 107.455 92.0947 103.269 92.1434 103.276Z" fill="#263238"/>
<path d="M99.9456 109.801C99.5802 110.563 99.782 111.419 100.394 111.715C101.007 112.011 101.786 111.628 102.166 110.866C102.545 110.104 102.329 109.248 101.717 108.955C101.104 108.663 100.311 109.039 99.9456 109.801Z" fill="white"/>
<path d="M232.701 103.234C232.695 103.28 232.683 103.324 232.666 103.366L232.541 103.746C232.429 104.076 232.269 104.563 232.043 105.19C231.604 106.443 230.943 108.249 230.07 110.459C227.817 116.225 225.123 121.809 222.014 127.163C221.136 128.683 220.368 130.263 219.713 131.892C219.123 133.42 218.709 135.01 218.481 136.632C218.141 139.388 218.141 142.175 218.481 144.931C218.735 147.291 219.076 149.184 219.296 150.499C219.407 151.143 219.494 151.651 219.557 152.006C219.585 152.17 219.605 152.299 219.619 152.396C219.629 152.441 219.635 152.486 219.637 152.532C219.622 152.489 219.61 152.444 219.602 152.4C219.581 152.306 219.553 152.177 219.522 152.01C219.452 151.662 219.351 151.154 219.226 150.51C218.986 149.205 218.624 147.315 218.353 144.942C217.997 142.17 217.99 139.364 218.332 136.59C218.555 134.955 218.967 133.352 219.56 131.812C220.215 130.169 220.988 128.576 221.871 127.044C224.974 121.696 227.679 116.125 229.962 110.379C230.853 108.179 231.531 106.38 231.991 105.134C232.22 104.518 232.398 104.038 232.52 103.7L232.662 103.328C232.68 103.276 232.701 103.234 232.701 103.234Z" fill="#263238"/>
<path d="M229.332 124.104C229.3 124.174 229.263 124.241 229.221 124.306L228.873 124.866C228.566 125.353 228.111 126.049 227.547 126.905C226.419 128.621 224.811 130.956 223.193 133.635C222.393 134.979 221.679 136.287 221.081 137.502C220.482 138.716 220.002 139.84 219.623 140.79C219.243 141.74 218.965 142.53 218.791 143.07C218.701 143.327 218.631 143.536 218.575 143.696C218.555 143.77 218.526 143.841 218.488 143.908C218.497 143.832 218.514 143.758 218.541 143.686C218.586 143.522 218.648 143.31 218.721 143.049C218.878 142.496 219.146 141.709 219.501 140.745C219.856 139.781 220.333 138.657 220.928 137.429C221.523 136.2 222.233 134.888 223.04 133.542C224.658 130.855 226.287 128.53 227.439 126.832L228.813 124.828L229.193 124.285C229.233 124.22 229.28 124.159 229.332 124.104Z" fill="#263238"/>
<path d="M232.666 103.234C232.753 102.385 231.834 101.539 231.034 101.24C230.209 100.998 229.332 100.998 228.507 101.24C226.089 101.817 223.888 103.078 222.168 104.872C220.448 106.667 219.282 108.919 218.808 111.36C221.042 110.255 223.34 109.284 225.688 108.451L225.292 108.565C226.431 108.336 227.507 107.861 228.444 107.175C229.382 106.489 230.16 105.607 230.724 104.591C230.907 104.185 231.153 103.809 231.451 103.478C231.604 103.315 231.804 103.205 232.023 103.161C232.242 103.117 232.469 103.143 232.673 103.234" fill="#455A64"/>
<path d="M232.673 103.227C234.893 101.692 237.623 101.079 240.287 101.518C241.605 101.751 242.855 102.271 243.949 103.041C245.043 103.812 245.954 104.814 246.617 105.976C247.255 107.15 247.593 108.464 247.6 109.8C247.606 111.136 247.282 112.452 246.655 113.632C245.424 111.075 244.105 108.412 241.815 106.735C241.275 106.345 240.67 105.987 240.367 105.392C240.019 104.696 240.162 103.857 239.859 103.147C239.49 102.274 238.467 102.016 237.524 101.967C236.581 101.919 233.828 102.792 232.673 103.213" fill="#455A64"/>
<path d="M232.614 103.185C234.89 102.51 237.465 103.624 239.017 105.329C240.569 107.034 241.352 109.324 241.62 111.614C241.888 113.904 241.672 116.218 241.439 118.511C239.656 115.85 238.331 112.909 237.517 109.811C237.169 108.419 236.884 106.972 236.226 105.684C235.848 105.024 235.328 104.457 234.703 104.024C234.078 103.591 233.364 103.303 232.614 103.182" fill="#455A64"/>
<path d="M232.537 103.234C234.357 102.392 235.384 100.492 235.617 98.4979C235.723 97.4977 235.577 96.4869 235.191 95.558C234.806 94.629 234.194 93.8115 233.411 93.1804C232.514 94.023 231.878 95.1046 231.577 96.2973C231.276 97.4899 231.323 98.7438 231.712 99.9107C232.099 101.007 232.798 102.103 232.537 103.234Z" fill="#455A64"/>
<path d="M217.991 140.147C217.944 140.06 217.905 139.969 217.876 139.875C217.803 139.694 217.716 139.423 217.573 139.082C217.309 138.386 216.877 137.411 216.331 136.225C214.827 133.142 213.11 130.168 211.194 127.323C209.312 124.454 207.226 121.724 204.951 119.155C204.265 118.376 203.518 117.652 202.717 116.991C202.497 116.813 202.265 116.653 202.021 116.51C201.932 116.468 201.846 116.419 201.763 116.364C201.857 116.396 201.949 116.433 202.038 116.476C202.29 116.609 202.531 116.763 202.759 116.935C203.58 117.579 204.344 118.292 205.042 119.068C207.35 121.618 209.456 124.344 211.34 127.222C213.269 130.071 214.979 133.062 216.456 136.169C217.006 137.37 217.406 138.361 217.65 139.057C217.782 139.405 217.858 139.677 217.921 139.861C217.953 139.954 217.976 140.05 217.991 140.147Z" fill="#263238"/>
<path d="M224.54 160.936H212.103L210.164 146.539H226.854L224.54 160.936Z" fill="#008080"/>
<path d="M236.195 129.258C234.938 126.561 231.709 124.8 228.744 125.04C229.063 125.199 229.341 125.43 229.556 125.715C229.77 126 229.915 126.331 229.979 126.682C230.096 127.384 230.159 128.094 230.167 128.805C230.435 132.212 232.628 135.118 234.73 137.808C236.209 139.698 237.698 141.598 239.466 143.223C239.253 138.379 238.947 133.246 236.195 129.258Z" fill="#455A64"/>
<path d="M228.744 125.078C230.627 123.63 233.056 123.028 235.432 122.99C237.809 122.952 240.155 123.477 242.455 124.062C243.847 124.41 245.239 124.8 246.426 125.6C247.612 126.4 248.552 127.688 248.573 129.111C246.621 126.964 243.475 126.55 240.687 125.739C238.801 125.193 236.978 124.406 235.053 123.999C232.892 123.647 230.676 124.013 228.744 125.043" fill="#455A64"/>
<path d="M229.068 124.695C228.243 123.829 228.699 121.803 229.416 120.85C230.132 119.896 231.277 119.357 232.405 118.957C233.887 118.428 235.425 118.07 236.988 117.888C236.788 118.871 236.279 119.765 235.537 120.439C234.796 121.104 233.987 121.687 233.122 122.179L229.061 124.692" fill="#455A64"/>
<path d="M221.328 123.54C218.972 124.584 217.152 126.501 215.388 128.381C218.002 127.744 220.504 126.709 222.804 125.311C223.715 124.754 224.62 124.131 225.664 123.898C226.708 123.665 227.877 124.131 228.747 124.852C227.268 122.673 223.684 122.496 221.328 123.54Z" fill="#455A64"/>
<path d="M220.218 138.953C221.537 135.925 220.98 132.254 222.654 129.411C223.938 127.232 226.304 125.931 228.66 125.019C229.207 126.658 228.946 128.499 228.253 130.075C227.561 131.652 226.461 133.03 225.302 134.311C223.698 136.082 221.954 137.721 220.214 139.36" fill="#455A64"/>
<path d="M227.62 146.539H209.019V149.779H227.62V146.539Z" fill="#008080"/>
<path d="M227 149.88C227 149.932 222.974 149.971 218.012 149.971C213.049 149.971 209.019 149.932 209.019 149.88C209.019 149.828 213.046 149.79 218.012 149.79C222.978 149.79 227 149.831 227 149.88Z" fill="#263238"/>
<path d="M233.508 103.356C232.892 102.205 232.169 101.116 231.347 100.102C230.517 99.0858 229.415 98.3266 228.17 97.9132C226.492 97.4225 224.69 97.8123 223.019 98.3099C221.062 98.8935 219.151 99.6217 217.302 100.488C219.744 101.407 222.428 101.455 224.902 100.624C226.183 100.189 227.425 100.245 228.768 100.398C230.404 100.582 232.45 102.096 233.508 103.356Z" fill="#455A64"/>
<path d="M189.082 122.552C186.152 126.282 185.174 131.252 185.505 135.998C187.248 129.683 190.876 124.049 195.903 119.848C197.817 118.261 200.26 117.001 202.63 117.001C197.754 116.58 192.096 118.703 189.082 122.552Z" fill="#455A64"/>
<path d="M195.889 115.059C194.254 115.181 192.757 116.009 191.407 116.935C189.34 118.355 187.398 120.147 186.497 122.503C188.327 120.348 190.661 118.677 193.291 117.639C195.921 116.6 198.766 116.226 201.576 116.549C199.794 115.651 197.873 114.913 195.889 115.059Z" fill="#455A64"/>
<path d="M200.469 109.456C199.522 110.114 198.799 111.196 198.847 112.345C198.912 113.139 199.243 113.889 199.787 114.471C200.384 115.165 201.047 115.799 201.767 116.364C202.369 113.706 203.089 110.928 203.691 108.27C202.548 108.444 201.452 108.848 200.469 109.456Z" fill="#455A64"/>
<path d="M206.016 109.202C204.705 109.99 203.648 111.139 202.975 112.512C202.352 113.904 202.094 115.644 202.877 116.945C205.121 113.59 207.542 110.356 210.129 107.257C208.699 107.772 207.321 108.423 206.016 109.202Z" fill="#455A64"/>
<path d="M210.704 113.768C209.231 113.665 207.755 113.921 206.402 114.514C205.05 115.106 203.862 116.018 202.94 117.172C204.228 116.515 205.677 116.241 207.116 116.382C210.721 116.849 214.298 117.512 217.831 118.369C217.104 117.082 216.076 115.991 214.834 115.189C213.593 114.388 212.175 113.9 210.704 113.768Z" fill="#455A64"/>
<path d="M203.281 116.945C200.518 117.098 198.103 119.225 197.139 121.817C196.175 124.41 196.505 127.351 197.546 129.912C198.586 132.473 200.295 134.707 202.101 136.802C203.006 133.67 203.918 130.538 204.318 127.33C204.718 124.121 204.412 119.987 203.281 116.945Z" fill="#455A64"/>
<g opacity="0.3">
<path d="M189.082 122.552C186.152 126.282 185.174 131.252 185.505 135.998C187.248 129.683 190.876 124.049 195.903 119.848C197.817 118.261 200.26 117.001 202.63 117.001C197.754 116.58 192.096 118.703 189.082 122.552Z" fill="black"/>
<path d="M195.889 115.059C194.254 115.181 192.757 116.009 191.407 116.935C189.34 118.355 187.398 120.147 186.497 122.503C188.327 120.348 190.661 118.678 193.291 117.639C195.921 116.6 198.766 116.226 201.576 116.549C199.794 115.651 197.873 114.913 195.889 115.059Z" fill="black"/>
<path d="M200.469 109.456C199.522 110.114 198.799 111.196 198.847 112.345C198.912 113.139 199.243 113.889 199.787 114.471C200.384 115.165 201.047 115.799 201.767 116.364C202.369 113.706 203.089 110.928 203.691 108.27C202.548 108.444 201.452 108.848 200.469 109.456Z" fill="black"/>
<path d="M206.016 109.202C204.705 109.99 203.648 111.139 202.975 112.512C202.352 113.904 202.094 115.644 202.877 116.945C205.121 113.59 207.542 110.356 210.129 107.257C208.699 107.772 207.321 108.423 206.016 109.202Z" fill="black"/>
<path d="M210.704 113.768C209.231 113.665 207.755 113.921 206.402 114.514C205.05 115.106 203.862 116.018 202.94 117.172C204.228 116.515 205.677 116.241 207.116 116.382C210.721 116.849 214.298 117.512 217.831 118.369C217.104 117.082 216.076 115.991 214.834 115.189C213.593 114.388 212.175 113.9 210.704 113.768Z" fill="black"/>
<path d="M203.281 116.945C200.518 117.098 198.103 119.225 197.139 121.817C196.175 124.41 196.505 127.351 197.546 129.912C198.586 132.473 200.295 134.707 202.101 136.802C203.006 133.67 203.918 130.538 204.318 127.33C204.718 124.121 204.412 119.987 203.281 116.945Z" fill="black"/>
</g>
<g opacity="0.2">
<path d="M236.195 129.258C234.938 126.561 231.709 124.8 228.744 125.04C229.063 125.199 229.341 125.43 229.556 125.715C229.77 126 229.915 126.331 229.979 126.682C230.096 127.384 230.159 128.094 230.167 128.805C230.435 132.212 232.628 135.118 234.73 137.808C236.209 139.698 237.698 141.598 239.466 143.223C239.253 138.379 238.947 133.246 236.195 129.258Z" fill="black"/>
<path d="M228.744 125.078C230.627 123.63 233.056 123.028 235.432 122.99C237.809 122.952 240.155 123.477 242.455 124.062C243.847 124.41 245.239 124.8 246.426 125.6C247.612 126.4 248.552 127.688 248.573 129.111C246.621 126.964 243.475 126.55 240.687 125.739C238.801 125.193 236.978 124.406 235.053 123.999C232.892 123.647 230.676 124.013 228.744 125.043" fill="black"/>
<path d="M229.068 124.695C228.243 123.829 228.699 121.803 229.416 120.85C230.132 119.896 231.277 119.357 232.405 118.957C233.887 118.428 235.425 118.07 236.988 117.888C236.788 118.871 236.279 119.765 235.537 120.439C234.796 121.104 233.987 121.687 233.122 122.179L229.061 124.692" fill="black"/>
<path d="M221.328 123.54C218.972 124.584 217.152 126.501 215.388 128.381C218.002 127.744 220.504 126.709 222.804 125.311C223.715 124.754 224.62 124.131 225.664 123.898C226.708 123.665 227.877 124.131 228.747 124.852C227.268 122.673 223.684 122.496 221.328 123.54Z" fill="black"/>
<path d="M220.218 138.953C221.537 135.925 220.98 132.254 222.654 129.411C223.938 127.232 226.304 125.931 228.66 125.019C229.207 126.658 228.946 128.499 228.253 130.075C227.561 131.652 226.461 133.03 225.302 134.311C223.698 136.082 221.954 137.721 220.214 139.36" fill="black"/>
</g>
<path d="M106.551 76.0205H73.08C72.6185 76.0205 72.1759 76.2038 71.8496 76.5301C71.5233 76.8565 71.34 77.299 71.34 77.7605V93.0099C71.34 93.4713 71.5233 93.9139 71.8496 94.2402C72.1759 94.5666 72.6185 94.7499 73.08 94.7499H87.1218L90.1041 98.5779L92.5923 94.7499H106.554C107.016 94.7499 107.458 94.5666 107.784 94.2402C108.111 93.9139 108.294 93.4713 108.294 93.0099V77.764C108.295 77.5349 108.25 77.308 108.162 77.0962C108.075 76.8845 107.946 76.6921 107.784 76.5301C107.622 76.3682 107.43 76.2397 107.218 76.1523C107.007 76.0648 106.78 76.0201 106.551 76.0205Z" fill="white"/>
<path d="M106.551 76.0205H106.718C106.881 76.0327 107.042 76.069 107.194 76.1284C107.445 76.2235 107.671 76.3761 107.852 76.5738C108.107 76.8479 108.267 77.197 108.308 77.5691C108.339 79.2291 108.332 81.6442 108.343 84.7031C108.343 86.2308 108.343 87.9221 108.343 89.7526C108.343 90.6679 108.343 91.6214 108.343 92.6062C108.353 92.8596 108.342 93.1135 108.308 93.3649C108.257 93.6234 108.149 93.8672 107.991 94.0783C107.832 94.2968 107.626 94.4768 107.388 94.6051C107.15 94.7334 106.887 94.8067 106.617 94.8195H92.5715L92.641 94.7812L90.1563 98.6092L90.0902 98.7101L90.0171 98.6162L87.0313 94.7882L87.1009 94.823H73.5985C73.3549 94.823 73.1252 94.823 72.8677 94.823C72.49 94.7797 72.1351 94.6202 71.8521 94.3665C71.5691 94.1127 71.3719 93.7773 71.2878 93.4066C71.2455 93.1666 71.2304 92.9227 71.2425 92.6793V91.9833C71.2425 90.0925 71.2425 88.2365 71.2425 86.4153V81.0178C71.2425 80.1362 71.2425 79.2662 71.2425 78.4078V77.764C71.2427 77.4286 71.3354 77.0998 71.5104 76.8137C71.6854 76.5276 71.9359 76.2953 72.2343 76.1423C72.4296 76.0407 72.642 75.9758 72.8607 75.9509C73.08 75.9301 73.2818 75.9509 73.4906 75.9509H77.1516H81.78H90.0937L102.131 75.9788L105.402 75.9962L102.131 76.0136L90.0937 76.0414H81.78H73.4976C73.2922 76.0414 73.08 76.0414 72.8851 76.0414C72.6866 76.0626 72.494 76.1216 72.3178 76.2154C72.0477 76.355 71.8211 76.5661 71.6628 76.8257C71.5045 77.0853 71.4205 77.3834 71.42 77.6875V80.9412C71.42 82.6986 71.42 84.4978 71.42 86.3248V92.6132C71.4085 92.846 71.4225 93.0794 71.4618 93.3092C71.5128 93.5302 71.6087 93.7384 71.7433 93.921C71.878 94.1035 72.0487 94.2565 72.2448 94.3706C72.4407 94.486 72.659 94.5584 72.8851 94.5829C73.1078 94.6037 73.3584 94.5829 73.5811 94.5829H87.1531L87.1774 94.6177L90.1598 98.4457H90.0206L92.5088 94.6177L92.5332 94.5794H92.5784H106.617C106.989 94.5629 107.346 94.4225 107.629 94.1804C107.913 93.9383 108.108 93.6084 108.183 93.2431C108.215 92.9998 108.227 92.7541 108.218 92.5088C108.218 91.5239 108.218 90.5704 108.218 89.6552C108.218 87.8247 108.218 86.1334 108.218 84.6057C108.218 81.5502 108.242 79.1247 108.218 77.4752C108.183 77.164 108.065 76.8678 107.877 76.6179C107.688 76.368 107.436 76.1737 107.146 76.0553C106.95 76.0153 106.75 76.0036 106.551 76.0205Z" fill="#263238"/>
<path d="M80.9308 79.3545H77.597C77.351 79.3545 77.1516 79.5539 77.1516 79.7999V82.1803C77.1516 82.4263 77.351 82.6257 77.597 82.6257H80.9308C81.1768 82.6257 81.3763 82.4263 81.3763 82.1803V79.7999C81.3763 79.5539 81.1768 79.3545 80.9308 79.3545Z" fill="#008080"/>
<path d="M77.2212 79.4414L78.8289 81.1571C78.915 81.2736 79.0374 81.3581 79.1769 81.3972C79.2642 81.4105 79.3534 81.4007 79.4358 81.369C79.5182 81.3373 79.5909 81.2846 79.6467 81.2162C79.939 80.917 80.2175 80.6072 80.5028 80.3045C80.7882 80.0017 81.0457 79.7303 81.3137 79.4414C81.3194 79.4327 81.3219 79.4223 81.3208 79.412C81.3198 79.4017 81.3152 79.392 81.3078 79.3846C81.3005 79.3773 81.2908 79.3727 81.2804 79.3716C81.2701 79.3706 81.2597 79.3731 81.251 79.3788L79.7163 81.0144C79.6459 81.1057 79.564 81.1876 79.4727 81.258C79.243 81.4042 79.0482 81.258 78.8951 81.0944C78.6027 80.7882 78.3139 80.4785 78.0251 80.1688L77.2873 79.3788C77.249 79.3405 77.1864 79.3997 77.2247 79.4414H77.2212Z" fill="white"/>
<path d="M77.2038 82.6048L78.4948 81.1362L78.6758 80.9309C78.7141 80.8891 78.6514 80.8265 78.6166 80.8683C78.1851 81.3589 77.7536 81.8461 77.3256 82.3368L77.1411 82.5421C77.1063 82.5839 77.1655 82.6465 77.2038 82.6048Z" fill="white"/>
<path d="M81.3102 82.476L80.1026 81.084L79.9286 80.8822C79.8903 80.8369 79.8312 80.8822 79.866 80.9413L81.0735 82.3333C81.1327 82.4029 81.1918 82.4691 81.2475 82.5387C81.3032 82.6083 81.3484 82.5178 81.3102 82.476Z" fill="white"/>
<path d="M84.4944 82.1035V81.0212L83.9619 81.9121H83.774L83.245 81.0421V82.1035H82.8518V80.2974H83.1998L83.868 81.4318L84.5326 80.3078H84.8806V82.1139L84.4944 82.1035Z" fill="#263238"/>
<path d="M86.652 81.5224H85.608C85.6293 81.6088 85.6813 81.6847 85.7542 81.7359C85.8271 81.787 85.9161 81.8101 86.0047 81.8008C86.0687 81.8038 86.1326 81.7936 86.1924 81.7709C86.2523 81.7481 86.3069 81.7133 86.3527 81.6685L86.5684 81.9017C86.4947 81.9784 86.4051 82.038 86.3059 82.0765C86.2068 82.115 86.1004 82.1313 85.9942 82.1244C85.8943 82.1346 85.7933 82.1238 85.6977 82.0926C85.6022 82.0614 85.5142 82.0106 85.4395 81.9434C85.3648 81.8762 85.3049 81.7942 85.2638 81.7025C85.2227 81.6108 85.2013 81.5115 85.2008 81.411C85.1977 81.3139 85.2149 81.2173 85.2514 81.1273C85.2879 81.0372 85.3428 80.9558 85.4126 80.8883C85.4824 80.8208 85.5656 80.7686 85.6568 80.7352C85.7479 80.7017 85.8451 80.6878 85.942 80.6941C86.0382 80.692 86.1338 80.7099 86.2227 80.7466C86.3117 80.7833 86.392 80.838 86.4587 80.9074C86.5255 80.9767 86.5771 81.0591 86.6103 81.1494C86.6436 81.2396 86.6578 81.3358 86.652 81.4319C86.652 81.4319 86.652 81.491 86.652 81.5224ZM85.608 81.2892H86.304C86.304 81.1969 86.2673 81.1084 86.202 81.0431C86.1368 80.9779 86.0483 80.9412 85.956 80.9412C85.8637 80.9412 85.7751 80.9779 85.7099 81.0431C85.6446 81.1084 85.608 81.1969 85.608 81.2892Z" fill="#263238"/>
<path d="M86.7773 81.9749L86.913 81.686C87.0579 81.7739 87.2238 81.8208 87.3932 81.8218C87.5812 81.8218 87.6508 81.7696 87.6508 81.693C87.6508 81.4668 86.8121 81.693 86.8121 81.1432C86.8121 80.8822 87.0487 80.6942 87.4524 80.6942C87.6382 80.6913 87.822 80.733 87.9883 80.816L87.8526 81.1014C87.7304 81.033 87.5924 80.9982 87.4524 81.0005C87.2714 81.0005 87.1949 81.0562 87.1949 81.1292C87.1949 81.3659 88.0336 81.1292 88.0336 81.6826C88.0336 81.9401 87.7934 82.1245 87.3793 82.1245C87.1688 82.1298 86.9608 82.0781 86.7773 81.9749Z" fill="#263238"/>
<path d="M88.1484 81.9749L88.2806 81.6861C88.4269 81.7736 88.5939 81.8204 88.7643 81.8218C88.9488 81.8218 89.0184 81.7696 89.0184 81.693C89.0184 81.4668 88.1797 81.693 88.1797 81.1432C88.1797 80.8822 88.4163 80.6943 88.8235 80.6943C89.0082 80.6909 89.191 80.7327 89.3559 80.8161L89.2237 81.1014C89.1014 81.0335 88.9634 80.9988 88.8235 81.0005C88.6425 81.0005 88.566 81.0562 88.566 81.1293C88.566 81.3659 89.4047 81.1293 89.4047 81.6826C89.4047 81.9401 89.1645 82.1246 88.7469 82.1246C88.5376 82.1293 88.3308 82.0776 88.1484 81.9749Z" fill="#263238"/>
<path d="M90.8802 81.3101V82.1036H90.5009V81.9296C90.4551 81.9973 90.3917 82.0513 90.3175 82.0856C90.2433 82.12 90.1611 82.1334 90.0798 82.1245C89.7527 82.1245 89.5613 81.9435 89.5613 81.7034C89.5613 81.4633 89.7318 81.2893 90.1564 81.2893H90.48C90.48 81.1153 90.3756 81.0143 90.1598 81.0143C90.0161 81.0133 89.8758 81.0585 89.7596 81.1431L89.617 80.8612C89.7953 80.7471 90.0038 80.6889 90.2155 80.6942C90.6331 80.6942 90.8802 80.8925 90.8802 81.3101ZM90.4765 81.6581V81.5155H90.2016C90.0137 81.5155 89.951 81.5851 89.951 81.679C89.951 81.773 90.038 81.8461 90.1807 81.8461C90.2434 81.8516 90.3062 81.8371 90.36 81.8045C90.4138 81.772 90.4558 81.7232 90.48 81.6651L90.4765 81.6581Z" fill="#263238"/>
<path d="M92.6898 80.7151V81.8705C92.6994 81.9742 92.6857 82.0787 92.6496 82.1764C92.6134 82.2741 92.5559 82.3624 92.481 82.4349C92.4062 82.5074 92.3161 82.5621 92.2173 82.5951C92.1185 82.6281 92.0136 82.6386 91.9102 82.6256C91.6638 82.6378 91.4199 82.5707 91.2142 82.4342L91.3743 82.1454C91.5175 82.2475 91.6891 82.3023 91.865 82.302C92.1504 82.302 92.2722 82.1732 92.2722 81.9227V81.8635C92.2161 81.9226 92.1479 81.9688 92.0721 81.9989C91.9964 82.0289 91.915 82.0421 91.8337 82.0375C91.6556 82.0375 91.4847 81.9667 91.3588 81.8408C91.2328 81.7148 91.162 81.544 91.162 81.3659C91.162 81.1877 91.2328 81.0169 91.3588 80.8909C91.4847 80.765 91.6556 80.6942 91.8337 80.6942C91.9204 80.6894 92.007 80.7048 92.0867 80.7393C92.1665 80.7737 92.2371 80.8262 92.293 80.8926V80.7151H92.6898ZM92.293 81.3659C92.2965 81.2922 92.2776 81.2193 92.2388 81.1566C92.2 81.0939 92.1431 81.0444 92.0757 81.0146C92.0083 80.9848 91.9334 80.9761 91.8609 80.9897C91.7885 81.0032 91.7218 81.0383 91.6697 81.0905C91.6175 81.1426 91.5824 81.2093 91.5689 81.2817C91.5553 81.3542 91.564 81.4291 91.5938 81.4965C91.6236 81.5639 91.6731 81.6208 91.7358 81.6596C91.7985 81.6984 91.8714 81.7173 91.945 81.7139C92.0373 81.7139 92.1259 81.6772 92.1911 81.6119C92.2564 81.5467 92.293 81.4581 92.293 81.3659Z" fill="#263238"/>
<path d="M94.4159 81.5224H93.3719C93.3932 81.6089 93.4452 81.6847 93.5181 81.7359C93.591 81.7871 93.68 81.8101 93.7686 81.8008C93.8326 81.804 93.8966 81.794 93.9565 81.7712C94.0164 81.7484 94.0709 81.7135 94.1166 81.6685L94.3324 81.9017C94.2586 81.9784 94.169 82.038 94.0699 82.0765C93.9707 82.115 93.8643 82.1313 93.7582 82.1244C93.6585 82.1341 93.5578 82.1229 93.4627 82.0915C93.3676 82.0601 93.2801 82.0092 93.2057 81.9421C93.1314 81.8749 93.0719 81.793 93.031 81.7016C92.9901 81.6102 92.9687 81.5112 92.9682 81.411C92.9651 81.3143 92.9823 81.2179 93.0185 81.1282C93.0548 81.0384 93.1094 80.9572 93.1788 80.8897C93.2482 80.8222 93.331 80.77 93.4218 80.7363C93.5125 80.7027 93.6093 80.6883 93.7059 80.6941C93.8017 80.6902 93.8973 80.7062 93.9867 80.741C94.076 80.7757 94.1572 80.8286 94.2252 80.8962C94.2932 80.9639 94.3464 81.0448 94.3816 81.134C94.4168 81.2232 94.4332 81.3187 94.4298 81.4145C94.4228 81.4319 94.4193 81.4911 94.4159 81.5224ZM93.3719 81.2892H94.0679C94.0679 81.1969 94.0312 81.1084 93.9659 81.0431C93.9007 80.9779 93.8122 80.9412 93.7199 80.9412C93.6276 80.9412 93.5391 80.9779 93.4738 81.0431C93.4085 81.1084 93.3719 81.1969 93.3719 81.2892Z" fill="#263238"/>
<path d="M94.5551 81.9749L94.6908 81.686C94.8369 81.774 95.004 81.8209 95.1745 81.8218C95.3589 81.8218 95.4285 81.7696 95.4285 81.693C95.4285 81.4668 94.5899 81.693 94.5899 81.1432C94.5899 80.8822 94.8265 80.6942 95.2337 80.6942C95.4184 80.6913 95.601 80.7331 95.7661 80.816L95.6339 81.1014C95.5114 81.0338 95.3735 80.999 95.2337 81.0005C95.0527 81.0005 94.9727 81.0562 94.9727 81.1292C94.9727 81.3659 95.8113 81.1292 95.8113 81.6826C95.8113 81.9401 95.5747 82.1245 95.1571 82.1245C94.9467 82.1292 94.7388 82.0776 94.5551 81.9749Z" fill="#263238"/>
<path d="M96.7057 81.2022C96.6945 81.0047 96.7429 80.8085 96.8445 80.6388C96.9461 80.4691 97.0963 80.3338 97.2756 80.2504C97.4549 80.167 97.6551 80.1393 97.8504 80.1709C98.0456 80.2025 98.2269 80.292 98.3707 80.4277C98.5146 80.5635 98.6144 80.7392 98.6572 80.9323C98.7001 81.1254 98.6841 81.3269 98.6112 81.5107C98.5383 81.6946 98.4119 81.8524 98.2484 81.9636C98.0849 82.0749 97.8918 82.1345 97.694 82.1348C97.567 82.1419 97.4399 82.1231 97.3205 82.0794C97.2011 82.0358 97.0918 81.9683 96.9993 81.881C96.9068 81.7937 96.8331 81.6885 96.7826 81.5718C96.7321 81.4551 96.7059 81.3294 96.7057 81.2022ZM98.2577 81.2022C98.2557 81.0903 98.2206 80.9816 98.1569 80.8896C98.0931 80.7976 98.0036 80.7266 97.8996 80.6853C97.7956 80.6441 97.6817 80.6346 97.5723 80.6579C97.4629 80.6812 97.3628 80.7364 97.2846 80.8165C97.2065 80.8966 97.1538 80.998 97.1331 81.1079C97.1125 81.2179 97.1248 81.3315 97.1685 81.4345C97.2123 81.5375 97.2855 81.6252 97.379 81.6867C97.4725 81.7481 97.5821 81.7806 97.694 81.7799C97.7696 81.7814 97.8448 81.7674 97.9148 81.7387C97.9848 81.71 98.0481 81.6673 98.101 81.6131C98.1538 81.559 98.195 81.4946 98.2219 81.4239C98.2489 81.3532 98.2611 81.2778 98.2577 81.2022Z" fill="#263238"/>
<path d="M99.3436 80.6385H98.7659V80.2905H100.339V80.6385H99.7612V82.1036H99.3436V80.6385Z" fill="#263238"/>
<path d="M102.131 80.9516C102.131 81.3553 101.828 81.6058 101.345 81.6058H100.997V82.1035H100.572V80.2974H101.351C101.828 80.2974 102.131 80.5479 102.131 80.9516ZM101.706 80.9516C101.706 80.7532 101.578 80.6384 101.324 80.6384H100.976V81.2648H101.324C101.578 81.2648 101.706 81.15 101.706 80.9516Z" fill="#263238"/>
<path d="M76.908 87.3863C76.908 85.6811 77.8545 84.7136 79.1212 84.7136C80.388 84.7136 81.338 85.6811 81.338 87.3863C81.338 89.0915 80.3984 90.0589 79.1212 90.0589C77.8441 90.0589 76.908 89.088 76.908 87.3863ZM80.1339 87.3863C80.1339 86.2135 79.7198 85.7263 79.1212 85.7263C78.5227 85.7263 78.119 86.2135 78.119 87.3863C78.119 88.559 78.5331 89.0462 79.1212 89.0462C79.7094 89.0462 80.1374 88.559 80.1374 87.3863H80.1339Z" fill="#263238"/>
<path d="M86.2483 88.472C86.2483 89.4464 85.3783 90.0588 84.0663 90.0588C82.7544 90.0588 81.8948 89.4464 81.8948 88.472C81.8918 88.2146 81.9645 87.962 82.1036 87.7455C82.2428 87.529 82.4424 87.3581 82.6778 87.254C82.4947 87.1483 82.3429 86.996 82.2378 86.8126C82.1327 86.6293 82.078 86.4213 82.0792 86.21C82.0792 85.3017 82.8901 84.731 84.0663 84.731C85.2426 84.731 86.0638 85.3017 86.0638 86.21C86.0644 86.422 86.0087 86.6304 85.9023 86.8138C85.7959 86.9973 85.6427 87.1492 85.4583 87.254C85.6958 87.3559 85.8977 87.5261 86.0383 87.743C86.1789 87.9598 86.252 88.2135 86.2483 88.472ZM85.0407 88.4337C85.0407 87.9778 84.6614 87.6959 84.0663 87.6959C83.4712 87.6959 83.1058 87.9778 83.1058 88.4337C83.1058 88.8896 83.4747 89.1819 84.0663 89.1819C84.6579 89.1819 85.0407 88.893 85.0407 88.4337ZM83.2694 86.2413C83.2694 86.6345 83.5791 86.8781 84.0663 86.8781C84.5535 86.8781 84.8772 86.6345 84.8772 86.2413C84.8772 85.848 84.564 85.6079 84.0663 85.6079C83.5687 85.6079 83.2694 85.8376 83.2694 86.2413Z" fill="#263238"/>
<path d="M91.1238 88.472C91.1238 89.4464 90.2503 90.0588 88.9383 90.0588C87.6264 90.0588 86.7668 89.4464 86.7668 88.472C86.7639 88.2146 86.8365 87.962 86.9756 87.7455C87.1148 87.529 87.3145 87.3581 87.5498 87.254C87.3668 87.1483 87.2149 86.996 87.1098 86.8126C87.0047 86.6293 86.95 86.4213 86.9512 86.21C86.9512 85.3017 87.7656 84.731 88.9383 84.731C90.1111 84.731 90.9393 85.3017 90.9393 86.21C90.9392 86.4219 90.8831 86.63 90.7768 86.8133C90.6705 86.9966 90.5177 87.1486 90.3338 87.254C90.571 87.3563 90.7726 87.5266 90.9132 87.7434C91.0538 87.9601 91.127 88.2136 91.1238 88.472ZM89.9127 88.4337C89.9127 87.9778 89.5369 87.6959 88.9383 87.6959C88.3398 87.6959 87.9778 87.9778 87.9778 88.4337C87.9778 88.8896 88.3467 89.1819 88.9383 89.1819C89.5299 89.1819 89.9127 88.893 89.9127 88.4337ZM88.1414 86.2413C88.1414 86.6345 88.4511 86.8781 88.9383 86.8781C89.4255 86.8781 89.7492 86.6345 89.7492 86.2413C89.7492 85.848 89.436 85.6079 88.9383 85.6079C88.4407 85.6079 88.1414 85.8376 88.1414 86.2413Z" fill="#263238"/>
<path d="M93.6642 84.804V89.9718H92.467V85.7644H91.423V84.804H93.6642Z" fill="#263238"/>
<path d="M98.4248 88.9973V89.9717H94.5203V89.1957L96.5108 87.313C96.9702 86.878 97.0502 86.617 97.0502 86.3595C97.0502 85.9558 96.7718 85.7192 96.2255 85.7192C96.0183 85.7108 95.8122 85.7533 95.6254 85.8431C95.4385 85.9329 95.2765 86.0672 95.1536 86.2342L94.2836 85.6739C94.5203 85.3572 94.8316 85.1037 95.1898 84.9362C95.5479 84.7686 95.942 84.6921 96.3368 84.7135C97.4852 84.7135 98.2543 85.3051 98.2543 86.2412C98.2543 86.7458 98.1151 87.2017 97.3913 87.8733L96.2011 88.9973H98.4248Z" fill="#263238"/>
<path d="M102.737 88.3918C102.737 89.2618 102.065 90.0588 100.596 90.0588C99.8986 90.0717 99.2124 89.8793 98.6232 89.5054L99.0895 88.5902C99.5196 88.8979 100.036 89.0611 100.565 89.0565C101.164 89.0565 101.532 88.8129 101.532 88.3918C101.532 87.9708 101.244 87.755 100.565 87.755H100.019V86.965L101.084 85.7644H98.8842V84.804H102.5V85.58L101.334 86.9059C102.263 87.0555 102.737 87.6297 102.737 88.3918Z" fill="#263238"/>
</svg>
